<?xml version="1.0" encoding="UTF-8" standalone="no"?>
<!-- Created with Inkscape (http://www.inkscape.org/) -->

<svg
   xmlns:dc="http://purl.org/dc/elements/1.1/"
   xmlns:cc="http://creativecommons.org/ns#"
   xmlns:rdf="http://www.w3.org/1999/02/22-rdf-syntax-ns#"
   xmlns:svg="http://www.w3.org/2000/svg"
   xmlns="http://www.w3.org/2000/svg"
   xmlns:sodipodi="http://sodipodi.sourceforge.net/DTD/sodipodi-0.dtd"
   xmlns:inkscape="http://www.inkscape.org/namespaces/inkscape"
   width="100"
   height="100"
   viewBox="0 0 26.458332 26.458334"
   version="1.1"
   id="svg1340"
   inkscape:export-filename="/Users/stephanschoeman/Projects/wozniak/Andile Wallet/Andile Wallet/Assets.xcassets/contacts-100.png"
   inkscape:export-xdpi="96"
   inkscape:export-ydpi="96"
   inkscape:version="0.92.2 5c3e80d, 2017-08-06"
   sodipodi:docname="contacts.svg">
  <defs
     id="defs1334">
    <filter
       height="1.0096"
       y="-0.0048000002"
       width="1.0096"
       x="0"
       id="filter5681"
       style="color-interpolation-filters:sRGB"
       inkscape:menu-tooltip="Reduce or remove antialiasing around shapes"
       inkscape:menu="Pixel Tools"
       inkscape:label="Cross-smooth">
      <feColorMatrix
         result="fbSourceGraphic"
         id="feColorMatrix5679"
         values="1 0 0 0 0 0 1 0 0 0 0 0 1 0 0 0 0 0 1000 -500 " />
      <feColorMatrix
         id="feColorMatrix5707"
         values="0 0 0 -1 0 0 0 0 -1 0 0 0 0 -1 0 0 0 0 1 0"
         in="fbSourceGraphic"
         result="fbSourceGraphicAlpha" />
      <feGaussianBlur
         in="fbSourceGraphic"
         result="blur"
         stdDeviation="0.54186664"
         id="feGaussianBlur5709" />
      <feComposite
         result="composite1"
         operator="in"
         in="fbSourceGraphic"
         id="feComposite5711"
         in2="blur" />
      <feComposite
         result="fbSourceGraphic"
         operator="in"
         in="composite1"
         id="feComposite5713"
         in2="composite1" />
      <feColorMatrix
         id="feColorMatrix5715"
         values="0 0 0 -1 0 0 0 0 -1 0 0 0 0 -1 0 0 0 0 1 0"
         in="fbSourceGraphic"
         result="fbSourceGraphicAlpha" />
      <feColorMatrix
         result="fbSourceGraphic"
         in="fbSourceGraphic"
         values="1 0 0 0 0 0 1 0 0 0 0 0 1 0 0 0 0 0 1000 -500 "
         id="feColorMatrix5717" />
      <feColorMatrix
         id="feColorMatrix6039"
         values="0 0 0 -1 0 0 0 0 -1 0 0 0 0 -1 0 0 0 0 1 0"
         in="fbSourceGraphic"
         result="fbSourceGraphicAlpha" />
      <feGaussianBlur
         result="blur1"
         stdDeviation="2.4"
         in="fbSourceGraphic"
         id="feGaussianBlur6041" />
      <feComposite
         result="composite1"
         operator="in"
         in="blur1"
         id="feComposite6043"
         in2="blur1" />
      <feComposite
         result="composite2"
         operator="arithmetic"
         k2="1.25319"
         in="composite1"
         id="feComposite6045"
         in2="composite1"
         k1="0"
         k3="0"
         k4="0" />
      <feColorMatrix
         result="colormatrix1"
         values="1 0 0 0 0 0 1 0 0 0 0 0 1 0 0 0 0 0 6.53 0 "
         in="composite2"
         id="feColorMatrix6047" />
      <feGaussianBlur
         result="blur2"
         stdDeviation="1"
         id="feGaussianBlur6049" />
      <feColorMatrix
         result="colormatrix2"
         values="1 0 0 0 0 0 1 0 0 0 0 0 1 0 0 0 0 0 5 -1 "
         in="blur2"
         id="feColorMatrix6051" />
      <feBlend
         result="blend"
         mode="normal"
         stdDeviation="17"
         in="fbSourceGraphic"
         id="feBlend6053"
         in2="colormatrix2" />
      <feComposite
         in2="blend"
         result="composite3"
         operator="in"
         in="blend"
         id="feComposite6055" />
      <feMerge
         id="feMerge6129">
        <feMergeNode
           in="composite3"
           id="feMergeNode6133"
           inkscape:collect="always" />
      </feMerge>
    </filter>
  </defs>
  <sodipodi:namedview
     id="base"
     pagecolor="#ffffff"
     bordercolor="#666666"
     borderopacity="1.0"
     inkscape:pageopacity="0.0"
     inkscape:pageshadow="2"
     inkscape:zoom="9.3466667"
     inkscape:cx="43.812411"
     inkscape:cy="88.855207"
     inkscape:document-units="mm"
     inkscape:current-layer="layer1"
     showgrid="false"
     units="px"
     inkscape:window-width="778"
     inkscape:window-height="413"
     inkscape:window-x="20"
     inkscape:window-y="20"
     inkscape:window-maximized="0" />
  <metadata
     id="metadata1337">
    <rdf:RDF>
      <cc:Work
         rdf:about="">
        <dc:format>image/svg+xml</dc:format>
        <dc:type
           rdf:resource="http://purl.org/dc/dcmitype/StillImage" />
        <dc:title></dc:title>
      </cc:Work>
    </rdf:RDF>
  </metadata>
  <g
     inkscape:label="Layer 1"
     inkscape:groupmode="layer"
     id="layer1"
     transform="translate(0,-270.54164)">
    <g
       id="g1590"
       transform="matrix(0.82684876,0,0,0.82684876,-5.1715002e-8,271.1746)">
      <g
         id="g1534">
        <path
           id="path1532"
           d="M 4.333,3.062 C 1.94,3.062 0,5.002 0,7.396 v 17.208 c 0,2.394 1.94,4.333 4.333,4.333 h 23.333 c 2.393,0 4.333,-1.939 4.333,-4.333 V 7.396 c 0,-2.393 -1.94,-4.333 -4.333,-4.333 z m 14.903,20.491 c 0,0.649 -0.525,1.174 -1.174,1.174 H 5.652 c -0.649,0 -1.174,-0.526 -1.174,-1.174 v -1.031 c 0,-2.054 1.665,-3.719 3.719,-3.719 h 0.96 c 0.498,0 0.902,-0.404 0.902,-0.902 0,-0.185 -0.075,-0.362 -0.207,-0.491 -0.55,-0.535 -1.014,-1.252 -1.352,-2.025 -0.058,0.033 -0.12,0.052 -0.186,0.052 -0.539,0 -1.172,-1.191 -1.172,-2.003 0,-0.812 0.075,-1.47 0.614,-1.47 0.046,0 0.096,0.011 0.145,0.02 0.039,-2.2 0.449,-4.942 3.957,-4.942 3.363,0 3.919,2.748 3.958,4.95 0.069,-0.018 0.137,-0.028 0.202,-0.028 0.539,0 0.613,0.658 0.613,1.47 0,0.812 -0.633,2.003 -1.172,2.003 -0.084,0 -0.157,-0.036 -0.227,-0.088 -0.34,0.788 -0.809,1.519 -1.368,2.062 -0.132,0.129 -0.207,0.307 -0.207,0.491 0,0.498 0.404,0.902 0.902,0.902 h 0.96 c 2.054,0 3.719,1.665 3.719,3.719 v 1.031 h -0.002 z m 8.287,-1.329 c 0,0.48 -0.391,0.87 -0.871,0.87 h -6.336 v -0.572 c 0,-0.937 -0.273,-1.81 -0.739,-2.549 h 7.075 c 0.481,0 0.871,0.39 0.871,0.87 z m 0,-5.687 c 0,0.481 -0.391,0.87 -0.871,0.87 H 15.818 V 16.58 c 0.025,-0.045 0.054,-0.086 0.079,-0.132 0.837,-0.26 1.445,-1.232 1.69,-2.162 h 9.065 c 0.48,0 0.869,0.39 0.869,0.87 v 1.381 z m 0,-5.686 c 0,0.481 -0.391,0.87 -0.871,0.87 H 17.375 C 17.238,11.454 17.072,11.232 16.85,11.095 16.76,10.083 16.545,9.265 16.246,8.6 h 10.407 c 0.481,0 0.871,0.39 0.871,0.87 v 1.381 z"
           inkscape:connector-curvature="0" />
      </g>
      <g
         id="g1536" />
      <g
         id="g1538" />
      <g
         id="g1540" />
      <g
         id="g1542" />
      <g
         id="g1544" />
      <g
         id="g1546" />
      <g
         id="g1548" />
      <g
         id="g1550" />
      <g
         id="g1552" />
      <g
         id="g1554" />
      <g
         id="g1556" />
      <g
         id="g1558" />
      <g
         id="g1560" />
      <g
         id="g1562" />
      <g
         id="g1564" />
    </g>
  </g>
</svg>
