<?xml version="1.0" encoding="UTF-8" standalone="no"?>
<!-- Created with Inkscape (http://www.inkscape.org/) -->

<svg
   xmlns:dc="http://purl.org/dc/elements/1.1/"
   xmlns:cc="http://creativecommons.org/ns#"
   xmlns:rdf="http://www.w3.org/1999/02/22-rdf-syntax-ns#"
   xmlns:svg="http://www.w3.org/2000/svg"
   xmlns="http://www.w3.org/2000/svg"
   xmlns:sodipodi="http://sodipodi.sourceforge.net/DTD/sodipodi-0.dtd"
   xmlns:inkscape="http://www.inkscape.org/namespaces/inkscape"
   width="75"
   height="75"
   viewBox="0 0 19.84375 19.84375"
   version="1.1"
   id="svg1521"
   sodipodi:docname="ezar.svg"
   inkscape:version="0.92.2 5c3e80d, 2017-08-06"
   inkscape:export-filename="/Users/stephanschoeman/Projects/wozniak/Andile Wallet/Andile Wallet/Assets.xcassets/ezar-75.png"
   inkscape:export-xdpi="96"
   inkscape:export-ydpi="96">
  <defs
     id="defs1515" />
  <sodipodi:namedview
     id="base"
     pagecolor="#ffffff"
     bordercolor="#666666"
     borderopacity="1.0"
     inkscape:pageopacity="0.0"
     inkscape:pageshadow="2"
     inkscape:zoom="9.3466667"
     inkscape:cx="37.5"
     inkscape:cy="37.5"
     inkscape:document-units="mm"
     inkscape:current-layer="layer1"
     showgrid="false"
     units="px"
     inkscape:window-width="1440"
     inkscape:window-height="878"
     inkscape:window-x="0"
     inkscape:window-y="0"
     inkscape:window-maximized="1" />
  <metadata
     id="metadata1518">
    <rdf:RDF>
      <cc:Work
         rdf:about="">
        <dc:format>image/svg+xml</dc:format>
        <dc:type
           rdf:resource="http://purl.org/dc/dcmitype/StillImage" />
        <dc:title></dc:title>
      </cc:Work>
    </rdf:RDF>
  </metadata>
  <g
     inkscape:label="Layer 1"
     inkscape:groupmode="layer"
     id="layer1"
     transform="translate(0,-277.15624)">
    <path
       style="fill:#0000cc;fill-opacity:1;stroke-width:2.85714293"
       d=""
       id="path2011"
       inkscape:connector-curvature="0"
       transform="matrix(0.26458333,0,0,0.26458333,0,26.06665)" />
    <g
       id="g2076"
       transform="matrix(0.12023108,0,0,0.12023108,-22.471152,276.45233)">
      <path
         inkscape:connector-curvature="0"
         id="path2005"
         d="m 254.10878,170.71677 c -3.91935,-0.61063 -7.17363,-2.18731 -9.49098,-4.59833 -1.53413,-1.59614 -2.35386,-3.12508 -3.0796,-5.74402 -1.00068,-3.61107 -1.9605,-2.02283 11.25382,-18.62194 13.05696,-16.40143 12.73208,-16.00198 13.01252,-15.99891 0.17888,0.002 1.35414,1.25284 3.35391,3.56968 0.49197,0.56998 0.63493,0.64457 0.50709,0.26459 -0.26713,-0.79403 -1.51731,-2.54513 -2.44377,-3.42294 -0.45109,-0.42741 -0.82017,-0.93978 -0.82017,-1.13861 0,-0.19882 0.67516,-1.21834 1.50036,-2.2656 0.82519,-1.04726 1.53632,-1.95047 1.58029,-2.00714 0.044,-0.0567 0.76779,0.0879 1.6085,0.32132 0.84071,0.2334 2.91033,0.71505 4.59916,1.07033 1.68884,0.35529 3.57967,0.92507 4.20185,1.26618 0.62219,0.34111 1.44307,0.78444 1.82419,0.98517 1.69323,0.89181 2.93261,2.67383 3.46534,4.98255 0.40691,1.76343 0.0807,2.82731 -1.38603,4.52053 -1.27563,1.47257 -2.33756,3.66904 -2.50892,5.18938 -0.0974,0.86382 0.10302,1.61978 0.96282,3.63219 0.9549,2.23501 1.08578,2.78506 1.08578,4.56331 0,1.11208 -0.0994,2.22871 -0.22093,2.4814 -2.34975,4.88641 -2.4497,5.0405 -4.61731,7.11832 -1.19527,1.14576 -2.78112,2.43795 -3.52411,2.87153 -0.79614,0.46459 -2.34124,1.88707 -3.76249,3.46389 -3.06317,3.39844 -5.48531,5.37806 -8.09895,6.61927 -1.90392,0.90417 -2.27721,0.98695 -4.74582,1.05247 -1.47364,0.0391 -3.38909,-0.0395 -4.25655,-0.17462 z m 8.03532,-1.12581 c 2.51776,-1.01697 4.33788,-2.44148 8.15248,-6.38049 2.26683,-2.34077 4.12342,-4.02075 4.84987,-4.38852 1.77916,-0.90073 4.97795,-4.29634 6.14079,-6.51864 0.54415,-1.03992 0.98936,-2.13422 0.98936,-2.43178 0,-0.29755 0.13511,-0.6245 0.30023,-0.72656 0.54587,-0.33737 0.0571,-3.80103 -0.84001,-5.95217 -1.40302,-3.36439 -1.39622,-3.33471 -1.06542,-4.64845 0.39672,-1.5755 1.65378,-4.05126 2.39818,-4.72318 1.56224,-1.41012 1.96794,-3.63171 1.03882,-5.68854 -0.59331,-1.31344 -2.25816,-3.175 -2.83949,-3.175 -0.20412,0 -0.71206,-0.28687 -1.12875,-0.63749 -0.49485,-0.4164 -1.60926,-0.8308 -3.21319,-1.19484 -1.35057,-0.30654 -3.49673,-0.80096 -4.76926,-1.0987 l -2.31369,-0.54136 -0.65767,0.744 c -0.36172,0.40921 -0.96705,1.18067 -1.34517,1.71435 l -0.68751,0.97034 1.20744,1.48241 c 1.97272,2.42196 2.52345,3.93682 1.56498,4.30463 -0.31127,0.11944 -0.64791,-0.10088 -1.12448,-0.73591 -0.37412,-0.49851 -1.216,-1.4719 -1.87084,-2.16308 l -1.19062,-1.25668 -2.27326,2.84418 c -1.25029,1.56431 -6.53446,8.202 -11.7426,14.75044 -5.20815,6.54844 -9.64482,12.10806 -9.85926,12.35471 -0.34374,0.39535 -0.34092,0.68868 0.0238,2.47724 0.87851,4.3079 2.89042,7.17281 6.4029,9.11755 4.12492,2.28382 10.26725,2.94962 13.85235,1.50154 z m -23.72218,-7.5243 c -0.47295,-0.23537 -0.85813,-0.61471 -0.85596,-0.84297 0.006,-0.64431 1.76158,-2.57986 2.05616,-2.2671 0.26323,0.27947 0.85032,2.46117 0.85032,3.15987 0,0.53269 -0.92528,0.51022 -2.05052,-0.0498 z m 1.25677,-0.56346 c 0,-0.12733 -0.074,-0.6013 -0.16435,-1.05326 l -0.16435,-0.82175 -0.52273,0.66455 c -0.42022,0.53422 -0.45947,0.74078 -0.20013,1.05326 0.35187,0.42398 1.05156,0.52858 1.05156,0.1572 z m -18.65313,-3.77101 c -4.1994,-0.97295 -7.37239,-2.31903 -9.92188,-4.20916 -3.03194,-2.24782 -4.7444,-4.41383 -6.11752,-7.73779 -1.29573,-3.13661 -1.84317,-9.10735 -1.18771,-12.95389 0.57987,-3.40294 1.70503,-11.7785 1.98471,-14.77388 1.01356,-10.85562 1.79173,-15.67033 2.79253,-17.27799 0.19186,-0.30822 0.42822,-1.093788 0.52524,-1.745728 0.27525,-1.84972 3.20577,-7.81688 4.85452,-9.88485 0.85622,-1.07393 2.31793,-2.4401 3.59504,-3.36006 1.18369,-0.85265 2.85631,-2.06232 3.71694,-2.68814 2.83811,-2.06378 3.87496,-2.41151 8.48938,-2.84708 4.85756,-0.45851 6.47092,-0.37112 8.93954,0.48424 2.4062,0.83373 3.67562,1.47175 5.48025,2.7544 1.01248,0.71962 1.46778,0.86038 3.04296,0.94077 1.01878,0.052 2.5666,-0.0412 3.43958,-0.20707 0.87299,-0.16588 3.02228,-0.37298 4.77621,-0.46021 3.76693,-0.18736 4.82856,0.0681 5.87994,1.41475 0.39638,0.50772 1.37921,1.25991 2.18406,1.67154 1.8297,0.93577 5.24549,3.67643 7.06959,5.67229 l 1.38609,1.5166 -0.0647,-1.66403 c -0.0826,-2.12448 0.21573,-2.21464 2.9146,-0.88079 3.37438,1.66771 8.36658,7.08004 9.12699,9.895098 0.38099,1.41041 0.53667,3.1221 0.35119,3.86113 l -0.16446,0.65529 h -6.30912 -6.30912 l -2.48324,3.17019 c -1.36578,1.74361 -2.65951,3.17236 -2.87496,3.175 -0.46301,0.006 -5.02467,-1.70562 -6.35515,-2.38413 -2.25751,-1.15126 -8.02254,-2.60538 -12.56771,-3.16995 -1.30969,-0.16268 -2.95588,-0.40724 -3.6582,-0.54345 -0.70233,-0.13621 -1.95249,-0.23469 -2.77813,-0.21883 l -1.50117,0.0288 2.11667,0.35867 c 1.16417,0.19727 2.89057,0.4878 3.83646,0.64562 7.95283,1.32696 20.37291,5.08176 20.37291,6.15907 0,0.45205 -2.15877,2.96349 -2.73558,3.1825 -0.31444,0.11938 -2.74058,0.27215 -5.39142,0.33948 l -4.81971,0.12243 -3.13556,-1.06709 c -1.72455,-0.5869 -3.42521,-1.06883 -3.77924,-1.07094 -0.35403,-0.002 -1.11994,-0.16498 -1.70203,-0.36192 -0.58208,-0.19694 -1.41552,-0.44201 -1.85208,-0.5446 l -0.79375,-0.18654 0.59531,0.55876 c 0.71182,0.66811 0.72162,0.7538 0.15743,1.37721 -0.42069,0.46486 -0.35579,0.48391 1.65365,0.48533 2.41169,0.002 4.0759,0.38246 4.0759,0.93255 0,0.45327 -1.8595,1.42863 -5.13633,2.69414 -1.31687,0.50858 -3.21714,1.33906 -4.22283,1.84552 -1.69922,0.85571 -4.66376,2.69265 -4.66376,2.88985 0,0.14 0.8563,-0.21862 1.85209,-0.77565 6.77711,-3.79105 11.17378,-5.04994 14.33212,-4.10367 0.86323,0.25862 1.18352,0.23698 1.9579,-0.13229 1.25872,-0.60024 1.90175,-0.55792 3.71643,0.24462 1.33482,0.59032 1.4872,0.61512 1.09126,0.17761 -0.84187,-0.93026 -0.58654,-1.32964 1.06114,-1.65981 0.83675,-0.16768 2.02056,-0.41434 2.63071,-0.54815 1.42631,-0.31279 1.40419,-0.31545 1.40419,0.16903 0,0.61729 -2.18038,3.2601 -2.70368,3.27709 -0.27388,0.009 -0.39925,0.15931 -0.31524,0.37823 0.0805,0.20977 -1.63216,2.58718 -4.05029,5.62239 -2.30437,2.89242 -8.43907,10.62979 -13.63268,17.19416 l -9.44292,11.93522 -1.2364,0.16947 c -0.68002,0.0932 -1.75737,0.16946 -2.39411,0.16946 -0.7974,0 -1.59541,0.24704 -2.56415,0.79375 -1.48587,0.83858 -2.55415,0.95518 -4.53866,0.4954 z m 4.26051,-1.0169 c 1.1036,-0.62284 1.84987,-0.82258 3.59327,-0.96174 1.21021,-0.0966 2.35646,-0.29923 2.54722,-0.45029 0.19075,-0.15106 2.89299,-3.49851 6.00497,-7.43879 3.11198,-3.94027 9.00096,-11.37672 13.08663,-16.52543 4.08566,-5.14872 7.48979,-9.4605 7.56472,-9.58173 0.14632,-0.23677 -1.97827,-1.39128 -3.63781,-1.9768 -0.9024,-0.31838 -1.14225,-0.3028 -2.17888,0.14155 -1.09014,0.46729 -1.26389,0.47329 -2.70899,0.0935 -1.30329,-0.3425 -1.83302,-0.3551 -3.39622,-0.0808 -1.01865,0.17875 -2.50693,0.56507 -3.30729,0.85848 -2.08489,0.76431 -9.18475,4.56222 -10.53987,5.63806 -1.06948,0.84908 -1.63097,0.97006 -1.63097,0.35142 0,-0.14317 0.55625,-0.85498 1.23611,-1.5818 2.06021,-2.20253 5.88357,-4.4932 10.09575,-6.04861 2.45991,-0.90836 4.54314,-1.90282 4.54314,-2.16873 0,-0.25478 -1.55552,-0.43578 -5.19812,-0.60484 -2.31391,-0.10739 -3.51073,-0.31614 -5.55625,-0.96912 -1.4339,-0.45773 -2.91031,-0.98755 -3.28093,-1.17738 -0.6583,-0.33718 -0.72289,-0.28309 -2.80171,2.34583 -1.17034,1.48004 -6.98129,8.80805 -12.91323,16.28447 -12.25238,15.44251 -11.20564,13.50651 -8.98531,16.61874 1.53524,2.15195 5.03264,4.78591 7.81434,5.88514 2.02113,0.79867 6.71978,2.08279 7.74878,2.11769 0.27927,0.009 1.13457,-0.33651 1.90065,-0.76886 z m -6.27868,-27.44752 c 6.71254,-8.47072 12.20463,-15.50505 12.20463,-15.63185 0,-0.1268 -0.29687,-0.38942 -0.65971,-0.58361 -0.36284,-0.19418 -0.85165,-0.646 -1.08624,-1.00403 -0.3519,-0.53707 -0.36405,-0.68958 -0.0694,-0.87166 0.21582,-0.13338 0.56702,-0.0684 0.8878,0.16431 0.2919,0.21175 0.85636,0.56629 1.25436,0.78788 l 0.72364,0.40289 2.37204,-2.98131 c 2.10419,-2.64466 2.3063,-2.9899 1.7899,-3.05738 -0.32017,-0.0418 -0.99885,-0.24939 -1.50817,-0.46123 -0.50933,-0.21185 -2.02139,-0.67344 -3.36013,-1.02577 l -2.43408,-0.64059 -0.93936,1.14636 c -0.51664,0.6305 -0.93935,1.21562 -0.93935,1.30027 0,0.0847 0.36501,0.15391 0.81114,0.15391 1.00587,0 1.83469,0.42255 1.83469,0.93535 0,0.30541 -0.41454,0.38757 -1.95549,0.38757 h -1.9555 l -2.02167,2.51354 c -1.11193,1.38245 -1.9773,2.51354 -1.92305,2.51354 0.0542,0 -0.41237,0.55659 -1.03694,1.23688 -0.62456,0.68028 -1.07485,1.33512 -1.00064,1.45521 0.0742,0.12008 0.0298,0.21833 -0.0987,0.21833 -0.25113,0 -9.19026,11.08394 -9.19026,11.39533 0,0.10268 -0.25217,0.40846 -0.56038,0.67953 -0.51153,0.44988 -3.70083,4.37626 -5.49443,6.76425 l -0.73588,0.97974 0.31263,3.51196 c 0.19338,2.17243 0.51601,4.05556 0.84586,4.93716 l 0.53324,1.42521 0.59746,-0.62523 c 0.3286,-0.34389 6.08954,-7.55583 12.80208,-16.02656 z m 1.04268,-14.591 c 3.72516,-4.66271 5.05339,-6.50326 4.80421,-6.65726 -0.18941,-0.11706 -0.88769,-0.29432 -1.55172,-0.39389 -1.92978,-0.28939 -6.14799,-2.12798 -6.97335,-3.03948 -0.74276,-0.82026 -0.96399,-2.12893 -0.48718,-2.88183 0.35713,-0.56391 2.75977,-0.69439 4.06383,-0.22069 1.03872,0.37732 3.63256,0.74771 7.89399,1.12723 l 1.74721,0.1556 5.59498,-6.996848 c 3.07724,-3.84827 5.59498,-7.14079 5.59498,-7.31671 0,-0.17592 -1.38029,-2.04631 -3.06731,-4.15643 l -3.06731,-3.83659 -1.23217,0.13048 c -0.6777,0.0718 -2.48233,0.25925 -4.0103,0.41664 -4.29906,0.44282 -4.87181,0.63677 -7.14373,2.41904 -0.65485,0.51372 -1.90502,1.39463 -2.77814,1.95757 -2.49956,1.61159 -3.96361,2.94043 -5.35135,4.85714 -1.59498,2.20295 -3.95098,7.12927 -4.29753,8.98599 -0.14258,0.7639 -0.42799,1.716398 -0.63424,2.116668 -1.04808,2.03398 -1.37634,4.13512 -2.8119,17.99882 -0.31442,3.03645 -1.77898,13.55659 -2.02502,14.546 -0.10807,0.43459 1.98268,-1.98529 5.20136,-6.02018 2.96015,-3.71078 7.69896,-9.64685 10.53069,-13.19127 z m 13.04778,10.347 c 0.32911,-0.41964 0.31975,-0.429 -0.0999,-0.0999 -0.25466,0.19972 -0.46302,0.40808 -0.46302,0.46302 0,0.21776 0.21727,0.0776 0.56292,-0.36313 z m 27.4758,-6.51637 c 0.007,-0.22834 -2.26628,-0.0261 -3.03881,0.27037 -0.60798,0.2333 -0.4782,0.47061 0.59853,1.09442 l 0.99219,0.57483 0.72049,-0.85355 c 0.39627,-0.46945 0.72369,-0.95819 0.7276,-1.08607 z m 3.19585,-3.86852 c 0.56585,-0.65485 1.03237,-1.26694 1.03671,-1.36021 0.009,-0.18608 -4.93625,-2.03017 -7.66502,-2.85848 -5.13317,-1.55817 -13.3846,-3.24631 -17.74259,-3.62992 l -1.7353,-0.15275 -2.40972,3.00849 -2.40972,3.00849 1.1425,0.58719 c 1.65122,0.84866 4.79757,1.66177 6.43023,1.66177 1.82185,0 1.58644,-0.34655 -0.74563,-1.09764 -1.03534,-0.33346 -1.84436,-0.74526 -1.84436,-0.93881 0,-0.54477 1.86602,-0.4205 4.99277,0.33252 5.22808,1.25906 6.24834,1.54287 7.70723,2.14389 1.36775,0.56346 1.77854,0.59609 6.83465,0.54279 l 5.37944,-0.0567 z m -30.99203,-1.14283 c -0.42062,-0.32236 -2.09462,-1.19613 -2.09462,-1.09332 0,0.1769 1.66534,1.17561 1.96233,1.17682 0.13339,5.3e-4 0.19292,-0.037 0.13229,-0.0835 z m -2.3592,-1.33832 c 0,-0.0549 -0.20836,-0.2633 -0.46302,-0.46302 -0.41965,-0.32911 -0.42901,-0.31975 -0.0999,0.0999 0.34564,0.44073 0.56291,0.58088 0.56291,0.36312 z m 37.98194,-3.40583 c 1.27449,-1.63711 2.50003,-3.12539 2.72343,-3.30729 0.29867,-0.24318 2.01385,-0.33073 6.47941,-0.33073 h 6.07322 l -0.15354,-1.83148 c -0.11386,-1.3581 -0.35945,-2.19199 -0.95017,-3.22631 -1.25263,-2.193258 -3.68342,-4.900908 -5.92198,-6.596448 -1.88474,-1.42754 -3.95145,-2.4044 -4.3159,-2.03996 -0.0819,0.0819 -0.005,0.62783 0.16993,1.21316 0.38837,1.29627 0.19609,1.89877 -0.6046,1.89443 -0.39242,-0.002 -0.80511,-0.31448 -1.17952,-0.89273 -0.85182,-1.31557 -5.80476,-5.34826 -7.58267,-6.17381 -0.98987,-0.45963 -1.6799,-0.97976 -1.92271,-1.44929 -0.69098,-1.33621 -1.74124,-1.67428 -4.99996,-1.60945 -1.60073,0.0318 -3.77043,0.21285 -4.82154,0.40224 l -1.91113,0.34434 1.17343,1.44984 c 0.64539,0.79741 1.1721,1.62844 1.17047,1.84672 -0.002,0.21828 -2.90325,4.02828 -6.44806,8.46666 l -6.4451,8.069798 0.96805,0.17807 c 0.53242,0.0979 2.81351,0.36813 5.06908,0.60043 5.92532,0.61024 10.78949,1.69785 14.2875,3.19463 0.80037,0.34247 2.64584,1.09847 4.10105,1.67999 1.4552,0.58153 2.66343,1.06551 2.68494,1.07553 0.0215,0.01 1.08188,-1.32123 2.35637,-2.95834 z m -40.68875,-1.27888 c -1.9787,-0.28992 -5.61579,-1.43052 -6.95243,-2.18029 -0.67359,-0.37784 -1.05639,-0.78126 -1.05639,-1.11331 0,-0.60162 1.17962,-0.8316 4.7625,-0.92853 l 2.11667,-0.0573 -2.91042,-0.32144 c -1.60073,-0.17679 -3.60488,-0.5435 -4.45367,-0.81489 -1.3905,-0.44461 -1.61293,-0.45435 -2.24709,-0.0984 -0.94931,0.53284 -0.99708,1.07547 -0.18015,2.04633 1.1878,1.41161 7.96406,3.68808 10.98195,3.68935 l 1.45521,5.3e-4 -1.51618,-0.22216 z m -0.24839,-2.07842 0.83753,-1.0422 -1.12398,-0.16324 c -0.61819,-0.0898 -2.43366,-0.12681 -4.03439,-0.0823 l -2.91042,0.081 1.45521,0.69588 c 1.70791,0.81673 3.61035,1.47634 4.38749,1.52124 0.34671,0.02 0.86158,-0.35461 1.38856,-1.01036 z m 10.09895,0.18881 c -0.65484,-0.12089 -1.72641,-0.40549 -2.38125,-0.63243 -2.85138,-0.98819 -4.69114,-1.41606 -6.57908,-1.53009 -1.11094,-0.0671 -1.66269,-0.0617 -1.22613,0.0121 1.42565,0.24077 6.85667,1.68117 7.80521,2.07007 1.1894,0.48764 1.79722,0.58078 2.77813,0.42569 0.73751,-0.11661 0.70939,-0.14108 -0.39688,-0.3453 z m 5.10324,-6.158068 c 2.44298,-3.05594 5.40052,-6.77704 6.57231,-8.26911 l 2.13052,-2.71285 -1.29932,-1.65277 -1.29932,-1.65277 -1.91765,-0.19311 c -1.513,-0.15236 -2.15111,-0.35943 -3.02403,-0.98133 -1.71376,-1.22094 -3.01634,-1.87183 -5.396,-2.69637 -3.17534,-1.10024 -3.33198,-1.02978 -1.69406,0.76207 0.56527,0.6184 0.97819,1.12436 0.91761,1.12436 -0.0606,0 0.79617,1.12681 1.90388,2.50403 1.10772,1.37722 1.97471,2.68139 1.92666,2.89817 -0.0481,0.21678 -2.52816,3.4537 -5.51134,7.19316 -2.98318,3.73946 -5.45843,6.884468 -5.50056,6.988908 -0.0421,0.10445 0.71852,0.38962 1.69032,0.63373 0.9718,0.24411 2.13736,0.63824 2.59014,0.87584 0.8624,0.45257 2.39595,0.83831 3.07218,0.77276 0.21828,-0.0212 2.39568,-2.53879 4.83866,-5.594718 z m 43.78518,53.694858 c -1.02216,-0.55471 -1.29883,-1.22626 -1.45721,-3.53701 -0.22783,-3.32393 1.187,-6.8353 3.44946,-8.56096 1.50192,-1.14557 6.29367,-1.49187 11.561,-0.83553 l 1.19062,0.14836 0.86818,-1.34816 c 0.91045,-1.41379 1.83768,-2.04432 2.58475,-1.75764 0.30733,0.11793 0.40481,0.37518 0.31675,0.83584 -0.12583,0.6582 -0.11965,0.66065 0.56509,0.22461 0.38078,-0.24247 1.23529,-1.01966 1.89892,-1.72709 1.33188,-1.41978 1.82616,-1.55879 2.59775,-0.73059 l 0.51767,0.55566 1.69116,-1.57328 c 2.24654,-2.08995 3.69832,-2.90146 6.34016,-3.544 2.74572,-0.66781 5.07491,-0.5484 8.04305,0.41234 3.92266,1.26971 6.70266,3.3478 7.99301,5.97488 0.61589,1.2539 0.71476,1.78461 0.71476,3.83646 0,1.96454 -0.10875,2.6021 -0.62146,3.64328 -1.52375,3.09434 -5.019,5.258 -10.56382,6.53929 -3.37838,0.78068 -3.51279,0.79071 -7.241,0.54018 -5.47155,-0.36767 -9.75605,-0.37729 -10.65756,-0.0239 -0.62232,0.24392 -0.84832,0.22826 -1.15674,-0.0802 -0.32493,-0.32494 -0.33705,-0.77549 -0.0796,-2.95852 0.16704,-1.41636 0.24108,-2.63783 0.16455,-2.71437 -0.0765,-0.0765 -0.13917,0.002 -0.13917,0.17478 0,0.51645 -1.27688,2.37789 -1.91732,2.79506 -0.56075,0.36527 -2.68586,0.84271 -8.26914,1.85782 -1.39462,0.25356 -3.18741,0.8125 -4.32694,1.34903 -2.11981,0.99807 -2.96336,1.10254 -4.06693,0.50366 z m 3.89596,-1.19093 c 1.51397,-0.70698 4.53998,-1.42494 8.86354,-2.10298 3.16623,-0.49655 3.84817,-0.88686 4.93029,-2.82188 0.88846,-1.5887 1.54856,-2.07403 1.82681,-1.34314 0.0692,0.1819 -0.0421,1.52136 -0.24742,2.97657 -0.20532,1.4552 -0.27668,2.74798 -0.15857,2.87283 0.11884,0.12561 0.63835,0.0872 1.1632,-0.086 0.73001,-0.24092 2.48752,-0.24102 7.63113,-5.2e-4 6.06433,0.28366 6.87854,0.27047 8.79935,-0.14262 4.55342,-0.97926 7.33847,-2.24328 9.4425,-4.28557 2.70591,-2.62651 2.90605,-7.25338 0.46221,-10.68544 -1.62345,-2.27992 -7.15129,-4.69708 -10.8815,-4.75815 -3.50392,-0.0574 -7.87071,1.57895 -9.20161,3.44802 -0.27896,0.39177 -1.00398,1.05657 -1.61116,1.47735 l -1.10397,0.76505 -0.47481,-0.58637 c -0.67515,-0.83378 -1.14359,-0.73135 -1.94515,0.42528 -0.71867,1.03716 -2.39004,2.16346 -3.21029,2.16346 -0.37008,0 -0.42902,-0.15526 -0.30133,-0.79375 0.26778,-1.33887 -0.55014,-0.85963 -1.8961,1.11098 -0.46705,0.6838 -0.95795,1.31049 -1.09088,1.39265 -0.13294,0.0822 -1.41132,-0.0394 -2.84085,-0.2702 -2.25347,-0.36377 -3.02072,-0.37442 -5.76901,-0.0801 -3.03673,0.32524 -3.21236,0.37789 -4.18183,1.25375 -2.04289,1.84563 -3.26728,5.00973 -2.99656,7.74382 0.19104,1.92948 0.60114,2.7977 1.4568,3.0842 0.85496,0.28627 1.33297,0.17774 3.33521,-0.75724 z m -17.79323,-31.13072 c -1.20055,-0.37967 -2.18282,-0.79955 -2.18282,-0.93307 0,-0.3648 1.86677,-2.57001 2.43137,-2.87218 0.35968,-0.19249 0.99214,-0.10302 2.33964,0.33097 1.57942,0.50869 1.97367,0.54887 2.72383,0.27761 1.89117,-0.68386 2.82391,-0.16666 2.82391,1.56584 0,0.76359 -0.1778,1.22926 -0.64943,1.70089 -0.59388,0.59388 -0.84848,0.64819 -2.97656,0.63485 -1.74339,-0.0109 -2.87467,-0.18775 -4.50994,-0.70491 z m 7.35547,-0.77066 c 0.26854,-0.70631 0.10863,-1.69242 -0.31923,-1.96857 -0.12905,-0.0833 -0.82968,-0.0295 -1.55695,0.11944 -0.98501,0.20178 -1.60787,0.18418 -2.44169,-0.069 -2.3378,-0.70979 -2.63869,-0.67774 -3.46032,0.36859 -0.4144,0.52773 -0.67387,1.0406 -0.5766,1.1397 0.59471,0.60594 2.8752,1.06689 5.37149,1.08572 2.70053,0.0204 2.72028,0.0159 2.9833,-0.6759 z m 0.3541,-26.530478 c -1.86798,-1.13907 -2.69988,-3.71105 -1.94545,-6.01482 0.61126,-1.86659 4.0411,-7.32062 5.59398,-8.89538 0.82631,-0.83795 1.54368,-1.73092 1.59416,-1.98438 0.073,-0.36633 0.37048,-0.46083 1.4508,-0.46083 1.61441,0 2.00133,-0.25743 1.04311,-0.69402 -0.84431,-0.38469 -0.87607,-0.95254 -0.13566,-2.42537 1.09895,-2.18603 0.4447,-2.03998 9.13831,-2.03998 h 7.7642 v 0.56988 c 0,0.68609 -1.45068,3.35681 -3.24318,5.97077 -1.28144,1.8687 -4.19569,4.57185 -4.92888,4.57185 -0.20299,0 -0.85833,-0.42555 -1.45632,-0.94567 -1.93304,-1.68131 -3.96844,-3.02308 -4.58586,-3.02308 -0.80197,0 -0.76574,0.15197 0.32361,1.35775 0.50932,0.56376 0.92604,1.24826 0.92604,1.52111 0,0.49481 0.48791,1.68841 1.20259,2.94197 0.86301,1.51373 0.27816,3.28718 -1.65783,5.02708 -2.66994,2.39951 -4.86032,4.11209 -5.82854,4.55713 -1.3951,0.64124 -4.17723,0.62324 -5.25508,-0.034 z m 5.39056,-0.79008 c 0.54391,-0.27926 1.50405,-0.98542 2.13365,-1.56926 0.62959,-0.58384 1.61811,-1.38959 2.1967,-1.79056 2.68475,-1.86053 3.20753,-3.63154 1.82839,-6.19405 -0.43075,-0.80036 -0.78791,-1.75927 -0.79369,-2.13091 -0.006,-0.41703 -0.36895,-1.02312 -0.94683,-1.58323 -1.10067,-1.06681 -1.14554,-1.93224 -0.10646,-2.05324 0.37235,-0.0434 0.96767,0.0458 1.32292,0.19809 0.82716,0.35463 3.04818,1.93598 4.12886,2.9397 0.4604,0.42763 1.01636,0.77751 1.23544,0.77751 0.71623,0 3.3631,-2.69113 4.79419,-4.87435 1.29825,-1.98057 2.52597,-4.17154 2.52597,-4.50782 0,-0.0786 -3.3076,-0.14283 -7.35023,-0.14283 h -7.35023 l -0.71415,1.38906 -0.71415,1.38906 0.78833,0.37873 c 0.53638,0.25769 0.78834,0.57319 0.78834,0.98715 0,0.74027 -0.8691,1.02328 -2.39374,0.77948 -0.98246,-0.1571 -1.04584,-0.12738 -1.04584,0.49055 0,0.46266 -0.23448,0.77905 -0.79042,1.06654 -0.92544,0.47856 -2.77588,3.03295 -4.93286,6.80942 -1.37218,2.40242 -1.53688,2.85079 -1.54437,4.20438 -0.009,1.70636 0.471,2.57866 2.00031,3.63177 0.77847,0.53607 1.1101,0.59986 2.42633,0.46674 0.83853,-0.0848 1.96962,-0.38268 2.51354,-0.66193 z m -21.17928,-10.64947 c -1.04678,-0.78075 -1.77911,-2.37732 -2.20227,-4.80125 -0.54229,-3.10634 0.10717,-7.72441 1.36914,-9.7355 0.74386,-1.18542 2.11708,-2.35932 2.75991,-2.35932 0.30401,0 1.35704,1.0929 2.79518,2.90098 l 2.30741,2.90099 2.41004,0.0756 c 2.39379,0.0751 2.40961,0.08 2.34586,0.73704 -0.1299,1.33846 -2.69707,6.03703 -4.16442,7.62195 -2.63814,2.84951 -5.85909,3.97355 -7.62085,2.65953 z m 4.84662,-1.1586 c 2.32617,-1.41307 4.38238,-4.16081 5.78742,-7.73382 l 0.54624,-1.38906 -2.17895,-0.002 -2.17895,-0.002 -2.42973,-3.05591 -2.42973,-3.05592 -1.09313,0.98758 c -1.38482,1.2511 -1.70921,1.89187 -2.22715,4.39942 -0.68706,3.32627 -0.43948,6.70964 0.66256,9.05411 1.05126,2.23646 2.76654,2.48339 5.54142,0.79774 z m -48.53561,-4.75216 c -0.56885,-0.20271 -1.24828,-0.58443 -1.50983,-0.84829 -1.08607,-1.09557 -2.8219,-8.23948 -3.53689,-14.55629 -0.17047,-1.50605 -0.13379,-1.69312 0.44565,-2.27256 0.35251,-0.35251 1.10783,-0.7076 1.70996,-0.80388 0.5932,-0.0949 1.24283,-0.37191 1.44363,-0.61568 0.33438,-0.40592 0.27605,-0.42694 -0.69324,-0.24977 -2.75906,0.5043 -3.14632,0.4902 -4.07084,-0.14829 -1.28917,-0.89031 -3.09913,-4.18087 -3.5942,-6.53435 -0.47208,-2.24421 -0.53266,-7.18583 -0.11574,-9.44117 0.31424,-1.69991 1.01268,-2.90532 1.83453,-3.16617 0.28726,-0.0912 0.52229,-0.28491 0.52229,-0.43054 0,-0.14562 -0.3458,-0.0185 -0.76845,0.28242 -0.42264,0.30095 -0.94473,0.54718 -1.16019,0.54718 -0.57154,0 -1.29167,-1.24064 -1.19631,-2.06099 0.081,-0.69724 0.11209,-0.70781 2.133,-0.7258 1.21775,-0.0109 2.17962,-0.14713 2.36802,-0.33553 0.24663,-0.24663 -0.10978,-0.31726 -1.60087,-0.31726 -4.03927,0 -4.75638,-1.43289 -4.00389,-8.000321 0.66231,-5.780429 3.28576,-8.652151 6.9137,-7.567989 1.54529,0.461788 3.21052,2.15496 3.75523,3.818229 0.29354,0.896347 0.5062,3.108436 0.68601,7.135991 l 0.2606,5.83695 1.23014,3.14609 c 1.99639,5.10575 2.56921,7.639 2.63171,11.63834 0.0456,2.91894 0.13806,3.59978 0.61079,4.49791 0.30638,0.58209 0.88797,2.36803 1.29242,3.96875 0.67903,2.68741 0.73551,3.30576 0.73705,8.0698 0.002,4.97584 -0.0219,5.20643 -0.65979,6.48229 -0.45669,0.91338 -1.05978,1.58912 -1.94813,2.18281 -1.40313,0.93772 -2.13853,1.03036 -3.71636,0.46812 z m 3.5934,-1.26862 c 0.93105,-0.70467 1.25193,-1.18469 1.71693,-2.56841 0.44801,-1.33317 0.50531,-1.79471 0.26458,-2.13084 -0.16901,-0.23598 -2.32173,-2.94759 -4.78382,-6.02579 -5.63244,-7.04191 -5.72211,-7.03864 -4.63522,0.16879 0.57227,3.79482 1.59752,7.99505 2.32279,9.51597 0.48993,1.02739 1.89491,1.87802 3.13036,1.89523 0.55166,0.008 1.23178,-0.28534 1.98438,-0.85495 z m 1.69162,-14.6682 c -0.83307,-3.61735 -1.27474,-4.865 -2.21584,-6.25945 -1.48742,-2.20394 -11.77057,-14.96558 -11.96315,-14.84656 -0.39559,0.2445 -0.87361,3.76767 -0.86102,6.34606 0.0202,4.13837 0.25895,4.78858 3.03513,8.26605 2.03228,2.54566 2.49763,2.99243 2.96567,2.8472 1.20535,-0.37401 3.00103,-0.45654 3.19251,-0.14672 0.27571,0.4461 -0.55906,1.26456 -1.66053,1.62808 -0.92627,0.3057 -0.93371,0.31937 -0.40592,0.74674 0.2957,0.23944 0.58586,0.56065 0.64481,0.71379 0.0589,0.15314 1.83359,2.43692 3.94364,5.07505 l 3.83646,4.79661 0.0742,-3.1503 c 0.0612,-2.59972 -0.0412,-3.65124 -0.58593,-6.01655 z m -11.22838,-4.5103 c -0.13717,-0.25629 -0.52054,-0.70277 -0.85195,-0.99219 -0.49349,-0.43096 -0.4683,-0.34662 0.13919,0.46598 0.78495,1.04998 1.12901,1.30399 0.71276,0.52621 z m 8.95924,-7.20422 c -0.3741,-2.97212 -1.16264,-5.81178 -2.65185,-9.54978 -1.07607,-2.701 -1.08932,-2.77592 -1.32672,-7.50465 -0.32711,-6.515447 -0.50563,-8.062223 -1.05517,-9.142037 -0.93338,-1.834071 -2.55564,-2.910417 -4.38656,-2.910417 -3.03264,0 -4.5735,3.017962 -4.79559,9.392704 l -0.12905,3.70417 0.69577,0.64539 c 0.59281,0.54988 0.97902,0.65128 2.6098,0.68525 2.61292,0.0544 2.57548,0.0433 2.57548,0.76551 0,0.76886 -1.16099,1.24291 -3.19398,1.30417 -1.30639,0.0393 -1.5112,0.22779 -1.04649,0.96282 0.2184,0.34545 0.34607,0.33724 1.02896,-0.0661 0.98863,-0.584 1.52003,-0.58395 1.74418,1.7e-4 0.17156,0.44707 -0.46988,1.19739 -1.24819,1.46008 -0.213,0.0719 -0.004,0.52245 0.59885,1.29093 0.50932,0.64928 3.06917,3.88087 5.68854,7.18131 l 4.7625,6.00081 0.2229,-0.85379 c 0.13333,-0.51069 0.0958,-1.86351 -0.0934,-3.36649 z m 17.5098,25.88789 c -1.55279,-0.76861 -2.3485,-2.05501 -2.67691,-4.32768 -0.44556,-3.08338 -0.34396,-7.1795 0.22984,-9.26553 0.44562,-1.62004 0.67881,-2.0004 1.90247,-3.10313 1.31914,-1.18876 1.35645,-1.25677 0.68955,-1.25677 -1.00089,0 -1.55731,-1.19941 -1.58123,-3.40852 -0.0406,-3.74556 0.65956,-15.3434 1.03701,-17.17842 0.32844,-1.59672 0.4801,-1.91956 0.87008,-1.85208 0.36755,0.0636 11.08844,13.18458 12.0231,14.71472 0.12107,0.1982 -0.0158,0.93142 -0.32104,1.71979 -0.29264,0.75587 -0.59858,1.68131 -0.67985,2.05655 -0.22076,1.01924 -1.14815,1.31142 -3.56977,1.12467 -1.87586,-0.14465 -2.19767,-0.0989 -3.06153,0.43496 -0.53093,0.32814 -0.9293,0.6297 -0.88526,0.67015 0.044,0.0404 0.67537,-0.0256 1.40298,-0.1467 1.93385,-0.32195 4.77066,-0.297 5.52924,0.0486 0.7975,0.36336 1.06911,0.96072 0.66063,1.4529 -0.37329,0.44979 -0.87941,0.46218 -1.5584,0.0382 -0.84824,-0.52974 -6.21071,0.67986 -7.4096,1.67136 l -0.66146,0.54704 1.05834,-0.14207 c 0.58208,-0.0781 1.9176,-0.27164 2.96783,-0.42999 3.8108,-0.57459 4.99271,0.40356 4.76574,3.94411 -0.36144,5.63793 -2.54214,10.65264 -5.42839,12.48304 -1.54949,0.98266 -3.57397,1.06084 -5.30337,0.20481 z m 3.63708,-0.12891 c 1.33431,-0.26686 3.25025,-2.20029 4.34211,-4.38174 1.28929,-2.57591 1.77461,-4.54204 1.9531,-7.91243 0.14434,-2.72559 0.13099,-2.81662 -0.47511,-3.24115 -0.75423,-0.52828 -2.25941,-0.54981 -5.18439,-0.0741 -2.29754,0.37364 -2.83937,0.26935 -2.68787,-0.51734 0.20455,-1.06214 2.10354,-1.91317 5.91118,-2.64908 l 1.85209,-0.35795 -3.03616,0.0595 c -2.65632,0.0521 -3.04719,0.004 -3.12436,-0.38327 -0.0589,-0.29566 0.33455,-0.69128 1.18408,-1.19063 1.15186,-0.67706 1.507,-0.74784 3.75244,-0.74784 h 2.48017 l 0.64308,-1.9191 c 0.54194,-1.61728 0.5888,-1.99386 0.29795,-2.39445 -0.18982,-0.26145 -2.72048,-3.47782 -5.62369,-7.14749 -4.25503,-5.37836 -5.32594,-6.58749 -5.52284,-6.23564 -0.33256,0.59425 -0.95512,9.79716 -1.03757,15.33777 -0.0727,4.88358 0.0509,5.40162 1.28804,5.40162 1.01987,0 0.76991,0.91426 -0.55208,2.01931 -1.43026,1.19554 -1.93428,2.36945 -2.30354,5.36512 -0.20892,1.6949 -0.19503,3.06391 0.0546,5.38374 0.30903,2.87155 0.39788,3.18303 1.15482,4.04857 0.75864,0.86748 2.3448,1.66488 3.36665,1.69248 0.23647,0.006 0.80675,-0.0638 1.26728,-0.15586 z m 7.29861,-18.88253 c -0.0899,-0.14552 -0.42439,-0.26276 -0.74322,-0.26053 -0.47129,0.003 -0.50548,0.052 -0.18283,0.26053 0.52126,0.33686 1.13424,0.33686 0.92605,0 z m 20.87054,5.15937 c -0.72667,-0.55472 -5.91253,-7.42908 -5.91695,-7.84348 -0.007,-0.61808 1.00031,-3.79623 1.70265,-5.37423 0.32665,-0.7339 1.02864,-1.90094 1.55998,-2.59343 0.53134,-0.69248 0.96607,-1.50989 0.96607,-1.81646 0,-0.30656 1.1285,-3.99956 2.50778,-8.20665 4.31956,-13.175584 6.49916,-16.557737 11.49536,-17.837704 3.32193,-0.851038 6.15568,0.203057 7.81727,2.907853 0.72365,1.177983 0.79994,1.511919 0.78575,3.439583 -0.014,1.902177 -0.19008,2.639745 -1.61497,6.765148 -0.87959,2.54661 -2.20805,6.20633 -2.95214,8.1327 -0.74409,1.92638 -1.54759,4.48622 -1.78556,5.68855 -0.2505,1.2656 -0.6375,2.39918 -0.91913,2.69224 -0.47886,0.49829 -0.51877,0.49672 -2.5526,-0.0999 -1.13638,-0.33336 -2.21631,-0.72567 -2.39985,-0.8718 -0.18354,-0.14613 -1.15317,-0.27976 -2.15472,-0.29696 -1.39442,-0.0239 -1.94094,0.0772 -2.33296,0.43174 -0.28861,0.26104 -0.92887,0.46302 -1.46768,0.46302 -1.83358,0 -1.42104,0.84023 0.63922,1.30194 1.46305,0.32788 5.11749,1.65821 6.51842,2.37291 1.81367,0.92527 1.80447,0.81247 0.47908,5.87159 -0.65734,2.50918 -1.28902,4.65407 -1.40371,4.76642 -0.32241,0.31586 -8.56887,0.41415 -8.97131,0.10693 z m 8.76975,-1.25677 c 0.0997,-0.47294 0.58543,-2.34701 1.07936,-4.1646 0.49393,-1.81759 0.89805,-3.48855 0.89805,-3.71326 0,-0.22471 -0.32742,-0.60076 -0.7276,-0.83567 -0.92802,-0.54475 -5.46497,-2.22343 -6.68073,-2.47189 -1.5599,-0.31878 -2.38125,-0.86315 -2.38125,-1.57821 0,-0.73512 0.667,-1.18865 1.76854,-1.20251 0.40975,-0.005 1.04266,-0.17953 1.40646,-0.3875 0.74755,-0.42734 4.37546,-0.54449 4.61977,-0.14918 0.30085,0.48677 3.87859,1.4494 4.32959,1.16491 0.25968,-0.1638 0.59651,-1.12878 0.87037,-2.49355 0.24572,-1.22449 1.00305,-3.6551 1.68297,-5.40135 2.16173,-5.55204 4.13197,-11.31545 4.53849,-13.276076 0.31158,-1.502794 0.33107,-2.137617 0.0934,-3.042709 -0.44292,-1.686636 -1.43486,-2.963635 -2.93726,-3.781343 -1.88038,-1.023432 -4.38941,-0.906224 -6.88337,0.321551 -2.30216,1.133348 -3.75272,3.04496 -5.87326,7.740036 -1.08317,2.398241 -5.73236,16.604871 -5.73236,17.516501 0,0.35649 -0.3092,0.9358 -0.68797,1.28894 -0.91086,0.84924 -2.00082,3.04615 -2.85437,5.75323 l -0.69409,2.20138 2.84582,3.66999 2.84582,3.67 4.14617,0.0156 4.14616,0.0156 0.1813,-0.8599 z m 17.97981,1.38114 c -0.10292,-0.16652 -0.0673,-0.42262 0.0792,-0.56911 0.37587,-0.37587 1.24859,-0.15494 1.24859,0.31608 0,0.47567 -1.0648,0.67859 -1.32781,0.25303 z m 2.78002,-0.44729 c -0.35745,-0.25037 -1.5448,-0.71303 -2.63856,-1.02814 -1.24881,-0.35977 -2.01904,-0.72438 -2.07035,-0.98003 -0.0954,-0.47518 0.79556,-2.33218 1.69428,-3.53149 0.34435,-0.45952 0.82132,-1.41202 1.05994,-2.11666 1.15288,-3.40454 6.79114,-12.63447 9.06739,-14.8435 2.01216,-1.95274 5.85122,-3.28049 7.89442,-2.73032 2.08721,0.56203 3.79241,2.35922 4.31827,4.55123 0.67121,2.79793 -0.61451,6.84538 -3.61913,11.39299 -0.89912,1.36086 -1.38731,1.84053 -2.11896,2.082 -0.87651,0.28927 -1.06245,0.55384 -2.38331,3.39113 -0.78795,1.69256 -1.56704,3.34527 -1.73131,3.67269 -0.29118,0.58037 -0.40572,0.59532 -4.56072,0.59532 -3.60304,0 -4.36254,-0.0704 -4.91196,-0.45522 z m 10.22209,-3.36763 c 1.5799,-3.47904 1.94144,-3.9927 3.17227,-4.50697 1.2921,-0.53988 3.60816,-4.23921 4.743,-7.57577 1.23397,-3.62801 0.69844,-6.49436 -1.54717,-8.28105 -0.92718,-0.7377 -1.16306,-0.79931 -2.95538,-0.77203 -2.2884,0.0348 -4.21085,0.78902 -5.89907,2.31422 -2.19831,1.98604 -8.23789,11.81223 -9.11235,14.82548 -0.17112,0.58965 -0.57195,1.42928 -0.89074,1.86584 -0.65099,0.89149 -1.6984,2.89864 -1.6984,3.25465 0,0.12816 0.62508,0.37409 1.38906,0.5465 0.76399,0.17241 1.86532,0.59853 2.4474,0.94692 1.00071,0.59894 1.27225,0.63098 4.98703,0.58851 l 3.9287,-0.0449 z M 253.7016,35.912562 c -2.09634,-2.73623 -2.19301,-3.02993 -0.99734,-3.02993 1.05591,0 2.32148,1.15266 2.96831,2.70348 0.49746,1.1927 0.5406,2.59153 0.0795,2.57968 -0.1819,-0.005 -1.10463,-1.01863 -2.05052,-2.25323 z m 1.15348,-0.55037 c -0.46922,-0.94433 -1.8003,-2.18552 -2.06255,-1.92327 -0.0682,0.0682 0.42027,0.81005 1.08546,1.64857 1.33607,1.68418 1.73288,1.79575 0.97709,0.2747 z m -4.17015,-3.31643 c -0.53523,-0.76415 -0.27027,-1.10375 0.70844,-0.90801 1.66625,0.33325 2.13384,1.48029 0.60344,1.48029 -0.63398,0 -1.03293,-0.17403 -1.31188,-0.57228 z m 2.12423,-1.03107 c -0.55929,-0.29977 -1.60093,-0.6142 -2.31475,-0.69874 l -1.29787,-0.15371 -3.03988,-3.863768 -3.03989,-3.863766 0.15728,-1.721352 c 0.14886,-1.62918 0.381,-3.198548 0.91994,-6.21927 0.41129,-2.305193 1.25608,-4.7294143 2.08333,-5.9783373 2.27011,-3.427237 7.42846,-3.567826 10.3958,-0.283334 1.31761,1.458438 1.43544,1.736571 1.80422,4.2586753 0.83195,5.689748 -0.64988,14.327026 -3.09078,18.015472 -0.79436,1.20036 -1.15367,1.2712 -2.5774,0.50813 z m 2.17266,-1.10863 c 2.19838,-3.569271 3.60254,-11.421088 2.96902,-16.60223 -0.57287,-4.6851123 -2.51756,-6.6149543 -6.66586,-6.6149543 -1.90018,0 -2.11865,0.05987 -3.18427,0.872647 -0.70922,0.540934 -1.41401,1.420961 -1.85412,2.315106 -0.8424,1.7114383 -2.01737,7.1450363 -2.22859,10.3059973 l -0.15028,2.248958 2.86642,3.626456 c 2.68418,3.39589 2.9253,3.62763 3.79246,3.64496 0.50933,0.0102 1.4023,0.24387 1.98438,0.51931 1.49534,0.70761 1.86974,0.65969 2.47084,-0.31625 z"
         style="fill:#ffffff;fill-opacity:1;stroke-width:0.26458335" />
      <path
         transform="matrix(0.26458333,0,0,0.26458333,0,26.06665)"
         inkscape:connector-curvature="0"
         id="path2007"
         d="m 1082.1788,472.94312 c -4.3309,-8.09236 0.2929,-25.07158 8.9611,-32.90654 4.7981,-4.33687 10.3772,-5.46515 27.0241,-5.46515 12.9724,0 22.3409,-1.3629 24.5497,-3.57143 1.9646,-1.96429 6.3717,-3.57143 9.7936,-3.57143 3.4219,0 7.8707,-1.98708 9.8863,-4.41574 2.0156,-2.42866 5.3024,-3.78733 7.3039,-3.01928 2.0015,0.76805 8.3972,-2.38477 14.2126,-7.00627 15.6632,-12.44762 29.6769,-15.40322 47.9061,-10.10384 20.1792,5.86625 31.2487,17.56468 31.2487,33.02408 0,13.5013 -5.4285,20.73409 -22.2078,29.58865 -9.4611,4.99276 -17.6996,6.21943 -47.8571,7.12575 l -36.4286,1.09479 v -11.7155 c 0,-13.56365 -1.4157,-14.31862 -8.9319,-4.76328 -3.8271,4.86534 -10.3828,7.91722 -21.8398,10.16708 -15.6244,3.06822 -24.914,5.67729 -35.4377,9.95292 -3.2741,1.3302 -5.8532,-0.0613 -8.1832,-4.41481 z"
         style="fill:#0000cc;fill-opacity:1;stroke-width:2.85714293" />
      <path
         transform="matrix(0.26458333,0,0,0.26458333,0,26.06665)"
         inkscape:connector-curvature="0"
         id="path2009"
         d="m 950.80733,540.194 c -15.76169,-4.85957 -29.83188,-18.96044 -33.87482,-33.94867 l -3.01658,-11.18325 45.22818,-56.55387 45.22819,-56.55387 6.5976,7.02283 c 11.593,12.3402 16.3265,5.59208 5.6226,-8.01568 -5.4367,-6.91168 -5.4689,-7.51068 -0.7143,-13.29751 l 4.9789,-6.05979 19.4585,5.43356 c 30.9334,8.63784 40.4945,22.40067 27.8744,40.12403 -8.6506,12.14854 -9.7793,21.4421 -4.5254,37.26011 6.308,18.99142 2.5813,30.53001 -15.2194,47.1223 -40.1175,37.39428 -48.86276,44.6831 -58.38546,48.66194 -12.6024,5.26562 -22.14398,5.26267 -39.25241,-0.012 z"
         style="fill:#0000cc;fill-opacity:1;stroke-width:2.85714293" />
      <path
         transform="matrix(0.26458333,0,0,0.26458333,0,26.06665)"
         inkscape:connector-curvature="0"
         id="path2013"
         d="m 1029.5506,353.34028 c -0.9041,-1.46284 -0.6007,-3.30442 0.6743,-4.09239 3.5842,-2.21515 26.3465,1.47496 26.3465,4.27116 0,3.34686 -24.9439,3.18182 -27.0208,-0.17877 z"
         style="fill:#0000cc;fill-opacity:1;stroke-width:2.85714293" />
      <path
         transform="matrix(0.26458333,0,0,0.26458333,0,26.06665)"
         inkscape:connector-curvature="0"
         id="path2015"
         d="m 825.99953,490.71517 c -18.18385,-6.3265 -35.86611,-18.24736 -40.83328,-27.5286 -4.6618,-8.71066 -6.005,-6.62744 48.85212,-75.76687 l 42.7957,-53.93776 11.66647,4.11617 c 6.41656,2.2639 15.25681,4.11618 19.645,4.11618 18.49087,0 17.94843,3.54051 -1.97034,12.86059 -18.95226,8.86785 -37.54112,22.99158 -34.39757,26.13513 0.84501,0.84501 13.33306,-4.36906 27.75123,-11.58682 C 922.84641,357.44038 927.82707,356 944.8872,356 c 34.42666,0 34.6964,-0.881 -21.08123,68.85438 -53.16828,66.47307 -47.24185,61.27493 -80.09168,70.24945 -1.57143,0.42931 -9.54307,-1.54559 -17.71476,-4.38866 z"
         style="fill:#019934;fill-opacity:1;stroke-width:2.85714293" />
      <path
         transform="matrix(0.26458333,0,0,0.26458333,0,26.06665)"
         inkscape:connector-curvature="0"
         id="path2017"
         d="m 980.21642,312.84655 c -12.27516,-4.91855 -31.59257,-9.65381 -47.6627,-11.68351 l -27.02198,-3.41294 13.66531,-17.30362 c 31.87772,-40.36498 34.81584,-44.92976 31.49471,-48.93146 -5.30844,-6.39628 -0.24111,-9.80073 14.58781,-9.80073 12.2337,0 16.2489,1.64764 30.54567,12.53444 9.05326,6.89395 18.90976,15.2511 21.90326,18.57143 6.9197,7.67505 13.1286,7.75127 13.1286,0.16117 0,-5.77674 0.1501,-5.78878 8.8968,-0.71429 11.142,6.46417 27.1859,25.65683 29.648,35.46675 1.7943,7.14881 1.3032,7.48919 -13.341,9.24784 -8.362,1.00421 -18.9376,1.83702 -23.5011,1.85068 -6.1283,0.0183 -10.8546,3.01244 -18.0798,11.4534 -5.3803,6.28572 -10.6465,11.29421 -11.7026,11.12998 -1.0562,-0.16422 -11.20858,-4.02034 -22.56098,-8.56914 z"
         style="fill:#019934;fill-opacity:1;stroke-width:2.85714293" />
      <path
         transform="matrix(0.26458333,0,0,0.26458333,0,26.06665)"
         inkscape:connector-curvature="0"
         id="path2019"
         d="m 1058.1621,247.60771 c -4.1965,-4.63711 -4.499,-7.07073 -1.8644,-15 4.6652,-14.04039 23.7396,-37.8884 31.1601,-38.95836 3.5173,-0.50714 6.1636,0.13571 5.8807,1.42857 -0.2828,1.29286 2.2637,8.33612 5.6591,15.65168 3.3954,7.31557 5.3616,15.41655 4.3694,18.00217 -2.7287,7.11089 -26.7583,24.41109 -33.9065,24.41109 -3.459,0 -8.5433,-2.49082 -11.2984,-5.53515 z"
         style="fill:#019934;fill-opacity:1;stroke-width:2.85714293" />
      <path
         transform="matrix(0.26458333,0,0,0.26458333,0,26.06665)"
         inkscape:connector-curvature="0"
         id="path2021"
         d="m 1110.9211,199.92833 c -5.4465,-3.73201 -11.3962,-6.78547 -13.2215,-6.78547 -3.9379,0 -7.0997,-10.29094 -4.9128,-15.98987 1.1707,-3.05071 8,-4.01013 28.5446,-4.01013 20.8073,0 26.5293,0.81974 24.9296,3.57143 -6.0202,10.35533 -19.404,27.6844 -22.2146,28.76292 -1.7724,0.68012 -7.6787,-1.81688 -13.1253,-5.54888 z"
         style="fill:#019934;fill-opacity:1;stroke-width:2.85714293" />
      <path
         transform="matrix(0.26458333,0,0,0.26458333,0,26.06665)"
         inkscape:connector-curvature="0"
         id="path2023"
         d="m 999.90373,206.57253 c -8.06683,-9.71994 -5.95408,-46.84913 2.98007,-52.37071 1.936,-1.19653 7.0478,2.29628 12.368,8.45079 6.1813,7.15077 11.4729,10.49025 16.6224,10.49025 4.1549,0 7.5544,0.85132 7.5544,1.89183 0,5.93126 -15.7548,27.29252 -22.8264,30.9494 -10.1743,5.26132 -12.7451,5.35192 -16.69847,0.58844 z"
         style="fill:#019934;fill-opacity:1;stroke-width:2.85714293" />
      <path
         transform="matrix(0.26458333,0,0,0.26458333,0,26.06665)"
         inkscape:connector-curvature="0"
         id="path2025"
         d="m 910.55987,175.70273 c -5.25972,-5.25972 -5.87841,-8.64824 -4.94695,-27.09387 0.76336,-15.1167 2.46443,-22.48213 6.01156,-26.02926 3.06875,-3.06875 4.94695,-3.62973 4.94695,-1.47756 0,2.30056 5.29412,3.46939 15.71428,3.46939 H 948 v 11.52034 c 0,20.43595 -14.47089,45.62252 -26.21233,45.62252 -2.86893,0 -7.92144,-2.70521 -11.2278,-6.01156 z"
         style="fill:#019934;fill-opacity:1;stroke-width:2.85714293" />
      <path
         transform="matrix(0.26458333,0,0,0.26458333,0,26.06665)"
         inkscape:connector-curvature="0"
         id="path2027"
         d="m 916.57143,114.30261 c 0,-2.20929 -1.28572,-4.0169 -2.85714,-4.0169 -3.18908,0 -3.48804,-39.073279 -0.46399,-60.640071 l 1.89256,-13.497219 19.46474,24.361752 c 22.78277,28.514545 23.92462,35.394288 6.47329,39.002171 -13.96327,2.886767 -21.55174,8.298927 -14.91683,10.638817 3.45421,1.21817 2.88482,2.29195 -2.58014,4.86574 -5.68605,2.67791 -7.01249,2.5428 -7.01249,-0.71429 z"
         style="fill:#019934;fill-opacity:1;stroke-width:2.85714293" />
      <path
         transform="matrix(0.26458333,0,0,0.26458333,0,26.06665)"
         inkscape:connector-curvature="0"
         id="path2029"
         d="M 824.14853,71.988683 C 809.19912,53.094766 805.31711,46.375537 807.69517,43.510154 c 1.71182,-2.062614 2.26641,-4.596194 1.23242,-5.63018 C 807.89361,36.845989 808.54762,36 810.38095,36 c 1.83334,0 3.33334,-1.847111 3.33334,-4.104691 0,-2.542518 -3.53398,-4.445429 -9.28572,-5 L 795.14286,26 V 7.0124686 c 0,-14.6629812 1.23964,-20.3569136 5.44282,-24.9999996 13.81933,-15.265671 25.73209,-2.046714 28.5443,31.6741 1.08741,13.038948 5.24295,34.181902 9.23455,46.984342 3.9916,12.802443 6.82822,26.150175 6.3036,29.661629 -0.79632,5.330114 -4.18499,2.300757 -20.5196,-18.343857 z"
         style="fill:#019934;fill-opacity:1;stroke-width:2.85714293" />
      <path
         transform="matrix(0.26458333,0,0,0.26458333,0,26.06665)"
         inkscape:connector-curvature="0"
         id="path2031"
         d="m 774.7281,396.71429 c 1.30775,-4.67424 2.86706,-16.41428 10.35015,-77.92614 3.30789,-27.19122 12.88886,-56.3991 23.98839,-73.12928 4.04573,-6.09809 15.4251,-16.49059 25.28748,-23.09443 14.26558,-9.55223 21.43635,-12.37902 35.07445,-13.8267 l 17.14286,-1.81972 11.02328,14.54319 11.02328,14.54318 -19.72008,24.9978 c -21.93415,27.80444 -25.74653,29.53653 -52.41981,23.81614 -16.7699,-3.5965 -23.37861,-1.6765 -22.20059,6.44984 0.86864,5.99219 7.04066,10.22483 24.59997,16.87017 l 9.44891,3.57595 -35.86791,45 c -19.72735,24.75 -36.60172,45 -37.49859,45 -0.89687,0 -1.00118,-2.25 -0.23179,-5 z"
         style="fill:#000000;fill-opacity:1;stroke-width:2.85714293" />
      <path
         transform="matrix(0.26458333,0,0,0.26458333,0,26.06665)"
         inkscape:connector-curvature="0"
         id="path2033"
         d="m 833.93413,182.3871 c -4.07212,-3.35129 -7.44071,-11.81127 -10.39252,-26.10011 -6.56986,-31.80276 -4.83306,-32.98097 14.091,-9.55903 13.50446,16.71421 16.36666,22.03333 14.93197,27.74958 -2.61979,10.43806 -11.15504,14.0617 -18.63045,7.90956 z"
         style="fill:#000000;fill-opacity:1;stroke-width:2.85714293" />
      <path
         sodipodi:nodetypes="scscsscsssssss"
         transform="matrix(0.26458333,0,0,0.26458333,0,26.06665)"
         inkscape:connector-curvature="0"
         id="path2035"
         d="M 834.03867,82.951921 C 823.6542,70.473718 811.94161,54.761473 809.47168,49.995711 c -1.65971,-3.202417 -1.75227,-4.944191 -0.45554,-8.571428 0.89509,-2.503763 2.43101,-5.066383 3.41315,-5.69471 2.99171,-1.91395 1.99767,-6.159542 -1.85293,-7.913993 -2.00126,-0.911833 -6.25584,-1.657879 -9.45463,-1.657879 h -5.81599 l 0.57752,-18.5355883 c 0.49306,-15.82519 1.00069,-19.1023857 3.47147,-22.4117307 6.23159,-8.346539 11.66515,-10.701667 16.50013,-7.060157 2.00846,1.512689 3.91362,4.060148 5.72979,7.642751 3.6427,7.1856401 4.67287,11.9300124 8.45437,38.936154 0.93516,6.678571 4.50733,23.302158 7.93814,36.941306 8.68342,34.52078 8.3916,36.097595 -3.93849,21.281485 z"
         style="fill:#019934;fill-opacity:1;stroke-width:1.42857146" />
      <path
         transform="matrix(0.26458333,0,0,0.26458333,0,26.06665)"
         inkscape:connector-curvature="0"
         id="path2037"
         d="m 835.08597,181.74 c -4.71336,-3.70753 -6.82439,-8.67278 -10.69278,-25.14999 -3.17392,-13.51918 -3.95689,-24.71802 -1.72817,-24.71802 2.94304,0 24.86287,27.48882 28.1941,35.35714 1.67858,3.96477 1.66756,5.35631 -0.0754,9.52787 -3.37795,8.08456 -9.34621,9.9791 -15.69772,4.983 z"
         style="fill:#000000;fill-opacity:1;stroke-width:1.42857146" />
      <path
         transform="matrix(0.26458333,0,0,0.26458333,0,26.06665)"
         inkscape:connector-curvature="0"
         id="path2039"
         d="m 839.50293,141.42591 -14.88703,-19.0175 4.08526,-2.34463 c 2.2469,-1.28954 4.08527,-3.42835 4.08527,-4.75291 0,-2.05052 -1.06165,-2.28255 -7.14643,-1.5619 l -7.14644,0.84639 -7.36232,-8.84672 C 800.55823,93.043881 798.55338,87.846597 798.61442,73.300558 c 0.028,-6.678571 0.50836,-14.714285 1.0674,-17.857142 l 1.01645,-5.714286 11.85615,14.285714 c 25.31049,30.497119 35.50948,45.124526 38.8469,55.714286 2.95561,9.37826 5.8795,40.71429 3.79895,40.71429 -0.44567,0 -7.50948,-8.55788 -15.69734,-19.01751 z"
         style="fill:#ffcc00;fill-opacity:1;stroke-width:1.42857146" />
      <path
         transform="matrix(0.26458333,0,0,0.26458333,0,26.06665)"
         inkscape:connector-curvature="0"
         id="path2041"
         d="m 884.21501,293.91623 c -5.10715,-1.86605 -9.90142,-3.61606 -10.65394,-3.8889 -0.75253,-0.27283 7.76533,-12.12976 18.92857,-26.34873 11.16324,-14.21897 20.29679,-26.75871 20.29679,-27.86609 0,-1.93082 -12.77621,-19.75067 -18.95694,-26.44052 -1.63332,-1.76786 -2.55086,-3.21429 -2.03897,-3.21429 2.88705,0 21.22458,7.90846 27.14163,11.70542 4.46526,2.86535 9.40191,4.6868 13.86487,5.11563 6.01246,0.57772 7.5413,1.42582 11.53998,6.40165 4.10738,5.11108 4.40421,6.06466 2.72571,8.7565 -1.03599,1.66144 -12.10719,15.71723 -24.60267,31.23509 -17.49815,21.73056 -23.43607,28.18243 -25.83919,28.07568 -1.71607,-0.0762 -7.2987,-1.66538 -12.40584,-3.53144 z"
         style="fill:#ffcc00;fill-opacity:1;stroke-width:1.42857146" />
      <path
         transform="matrix(0.26458333,0,0,0.26458333,0,26.06665)"
         inkscape:connector-curvature="0"
         id="path2043"
         d="m 775.7303,447.22097 c -0.8617,-2.47187 -2.23563,-10.49304 -3.05317,-17.82482 l -1.48644,-13.33051 4.72348,-6.0254 c 2.59792,-3.31397 18.86768,-23.71284 36.15502,-45.33083 17.28734,-21.61798 33.68153,-42.33025 36.43153,-46.02725 4.64377,-6.24292 5.45801,-6.72653 11.42857,-6.78788 10.85309,-0.1115 13.03401,-3.38155 4.30233,-6.45086 l -4.06405,-1.42858 3.09514,-3.7777 3.09515,-3.77771 12.74296,3.77771 c 7.00862,2.07774 12.95123,4.42056 13.20579,5.20628 0.25457,0.78571 -2.95604,5.71164 -7.13469,10.94651 l -7.59754,9.51795 -4.62587,-2.9289 c -3.4413,-2.17888 -5.03966,-2.51513 -6.2417,-1.31308 -1.20205,1.20205 -0.60893,2.66679 2.31618,5.71996 l 3.93201,4.10413 -21.77732,27.691 c -33.24673,42.27494 -65.53196,82.8889 -69.92979,87.96978 l -3.95087,4.56452 z"
         style="fill:#ffcc00;fill-opacity:1;stroke-width:1.42857146" />
      <path
         transform="matrix(0.26458333,0,0,0.26458333,0,26.06665)"
         inkscape:connector-curvature="0"
         id="path2045"
         d="m 947.77613,336.86736 c -9.01312,-3.16637 -40.92765,-10.70966 -45.311,-10.70966 -5.78142,0 -4.85103,2.56152 2.10702,5.80098 l 6.07143,2.82668 -7.58106,-0.68469 c -4.16958,-0.37658 -10.76417,-2.15709 -14.65465,-3.95669 l -7.07359,-3.27199 8.56952,-10.71429 c 8.47881,-10.60089 8.63392,-10.70957 14.65464,-10.26854 19.28357,1.41256 59.24164,10.44119 80.88809,18.27689 7.48395,2.70908 13.83061,5.14902 14.10368,5.4221 0.27308,0.27307 -1.1942,2.50579 -3.26063,4.9616 l -3.75713,4.46509 -19.51586,-0.0682 c -12.95353,-0.0453 -21.4408,-0.74444 -25.24046,-2.07929 z"
         style="fill:#019934;fill-opacity:1;stroke-width:1.42857146" />
      <path
         transform="matrix(0.26458333,0,0,0.26458333,0,26.06665)"
         inkscape:connector-curvature="0"
         id="path2047"
         d="M 950.07589,14.197487 C 944.54738,12.847874 942.53408,11.0976 933.29017,-0.39529448 921.07269,-15.585212 920.92834,-16.341147 925.71852,-40.046464 c 3.44922,-17.069238 7.139,-25.491811 12.99395,-29.660896 3.56715,-2.54004 5.7633,-2.931644 13.63128,-2.430648 8.61283,0.548424 9.76558,1.018999 14.1106,5.76024 6.68393,7.293428 8.20058,14.433062 7.36659,34.678326 -0.71695,17.404072 -2.928,28.1951947 -8.36821,40.8413004 -3.30288,7.6777426 -3.87081,7.8644686 -15.37684,5.0556286 z"
         style="fill:#fe0000;fill-opacity:1;stroke-width:1.42857146" />
      <path
         transform="matrix(0.26458333,0,0,0.26458333,0,26.06665)"
         inkscape:connector-curvature="0"
         id="path2049"
         d="m 1022.8704,114.02792 -10.3256,-13.55835 3.1139,-9.357194 c 1.7126,-5.146455 5.2479,-12.528418 7.8562,-16.404362 2.6083,-3.875946 5.1979,-9.153236 5.7545,-11.727314 2.6944,-12.45961 19.8404,-61.1288716 25.0908,-71.2209102 8.8395,-16.9905468 18.8356,-24.1823788 33.592,-24.1681768 10.6575,0.01026 20.5323,9.672005 20.5432,20.100053 0.01,6.2737638 -4.4145,21.1081381 -14.6569,49.180321 -4.3002,11.785714 -8.622,24.852893 -9.6041,29.038174 -0.982,4.185282 -2.5879,7.9175 -3.5686,8.29382 -0.9806,0.376322 -5.7058,-0.637285 -10.5004,-2.252458 -10.0036,-3.369957 -13.6472,-3.519975 -24.4197,-1.005432 -14.2338,3.322439 -13.6473,9.13689 1.3821,13.701909 5.6529,1.717016 13.6843,4.628294 17.8476,6.469506 8.4226,3.724867 8.1448,2.368695 3.813,18.611624 -0.8382,3.14286 -2.2348,8.44643 -3.1037,11.78571 l -1.5798,6.07143 h -15.4544 -15.4545 z"
         style="fill:#fe0000;fill-opacity:1;stroke-width:1.42857146" />
      <path
         transform="matrix(0.26458333,0,0,0.26458333,0,26.06665)"
         inkscape:connector-curvature="0"
         id="path2051"
         d="m 1140.3745,124.09269 c -5.0003,-2.06912 -8.8838,-4.68677 -8.63,-5.81699 1.563,-6.96124 18.7893,-39.504248 28.9598,-54.709391 9.4602,-14.143009 13.8741,-18.867519 20.7266,-22.184732 12.2274,-5.919198 20.5697,-5.50366 26.9225,1.341032 4.5134,4.863021 5.0565,6.945119 4.3547,16.696739 -1.0011,13.910182 -7.4754,27.532327 -18.4298,38.777045 -4.6458,4.768997 -10.6479,13.443877 -13.338,19.277507 l -4.891,10.6066 -13.2918,-0.11288 c -8.1245,-0.069 -16.826,-1.57538 -22.383,-3.87493 z"
         style="fill:#fe0000;fill-opacity:1;stroke-width:2.02030516" />
    </g>
  </g>
</svg>
