<?xml version="1.0" encoding="UTF-8" standalone="no"?>
<!-- Created with Inkscape (http://www.inkscape.org/) -->

<svg
   xmlns:dc="http://purl.org/dc/elements/1.1/"
   xmlns:cc="http://creativecommons.org/ns#"
   xmlns:rdf="http://www.w3.org/1999/02/22-rdf-syntax-ns#"
   xmlns:svg="http://www.w3.org/2000/svg"
   xmlns="http://www.w3.org/2000/svg"
   xmlns:sodipodi="http://sodipodi.sourceforge.net/DTD/sodipodi-0.dtd"
   xmlns:inkscape="http://www.inkscape.org/namespaces/inkscape"
   width="75"
   height="75"
   viewBox="0 0 19.84375 19.84375"
   version="1.1"
   id="svg8"
   inkscape:version="0.92.2 5c3e80d, 2017-08-06"
   sodipodi:docname="home.svg"
   inkscape:export-filename="/Users/stephanschoeman/Projects/wozniak/Andile Wallet/Andile Wallet/Assets.xcassets/home-75.png"
   inkscape:export-xdpi="95.999992"
   inkscape:export-ydpi="95.999992">
  <defs
     id="defs2" />
  <sodipodi:namedview
     id="base"
     pagecolor="#ffffff"
     bordercolor="#666666"
     borderopacity="1.0"
     inkscape:pageopacity="0.0"
     inkscape:pageshadow="2"
     inkscape:zoom="9.3466667"
     inkscape:cx="37.5"
     inkscape:cy="37.5"
     inkscape:document-units="mm"
     inkscape:current-layer="layer1"
     showgrid="false"
     inkscape:window-width="1440"
     inkscape:window-height="878"
     inkscape:window-x="0"
     inkscape:window-y="0"
     inkscape:window-maximized="1"
     units="px" />
  <metadata
     id="metadata5">
    <rdf:RDF>
      <cc:Work
         rdf:about="">
        <dc:format>image/svg+xml</dc:format>
        <dc:type
           rdf:resource="http://purl.org/dc/dcmitype/StillImage" />
        <dc:title></dc:title>
      </cc:Work>
    </rdf:RDF>
  </metadata>
  <g
     inkscape:label="Layer 1"
     inkscape:groupmode="layer"
     id="layer1"
     transform="translate(0,-277.15623)">
    <g
       id="layer1-0"
       inkscape:label="Layer 1"
       inkscape:export-xdpi="95.999992"
       inkscape:export-ydpi="95.999992"
       transform="matrix(0.07324219,0,0,0.07324219,-1.0927879e-6,275.24705)">
      <g
         inkscape:export-ydpi="96"
         inkscape:export-xdpi="96"
         transform="matrix(2.8321306,0,0,2.8370651,1.9580747e-4,25.830464)"
         id="g952">
        <g
           id="g896">
          <path
             inkscape:connector-curvature="0"
             d="M 94.666,34.666 49.334,0.585 c -0.889,-0.669 -2.115,-0.669 -3.004,0 L 0.998,34.666 c -0.86,0.646 -1.21,1.77 -0.869,2.79 0.341,1.02 1.296,1.708 2.371,1.708 h 6.832 v 53.917 c 0,1.381 1.119,2.5 2.5,2.5 h 21.75 c 1.381,0 2.5,-1.119 2.5,-2.5 V 66.165 h 23.5 v 26.916 c 0,1.381 1.119,2.5 2.5,2.5 h 21.75 c 1.381,0 2.5,-1.119 2.5,-2.5 V 39.164 h 6.832 c 1.075,0 2.03,-0.688 2.371,-1.708 0.341,-1.02 -0.009,-2.144 -0.869,-2.79 z"
             id="path894" />
        </g>
        <g
           id="g898" />
        <g
           id="g900" />
        <g
           id="g902" />
        <g
           id="g904" />
        <g
           id="g906" />
        <g
           id="g908" />
        <g
           id="g910" />
        <g
           id="g912" />
        <g
           id="g914" />
        <g
           id="g916" />
        <g
           id="g918" />
        <g
           id="g920" />
        <g
           id="g922" />
        <g
           id="g924" />
        <g
           id="g926" />
      </g>
    </g>
  </g>
</svg>
