<?xml version="1.0" encoding="UTF-8" standalone="no"?>
<!-- Created with Inkscape (http://www.inkscape.org/) -->

<svg
   xmlns:dc="http://purl.org/dc/elements/1.1/"
   xmlns:cc="http://creativecommons.org/ns#"
   xmlns:rdf="http://www.w3.org/1999/02/22-rdf-syntax-ns#"
   xmlns:svg="http://www.w3.org/2000/svg"
   xmlns="http://www.w3.org/2000/svg"
   xmlns:sodipodi="http://sodipodi.sourceforge.net/DTD/sodipodi-0.dtd"
   xmlns:inkscape="http://www.inkscape.org/namespaces/inkscape"
   width="75"
   height="75"
   viewBox="0 0 19.843749 19.84375"
   version="1.1"
   id="svg1132"
   inkscape:version="0.92.2 5c3e80d, 2017-08-06"
   sodipodi:docname="logout.svg"
   inkscape:export-filename="/Users/stephanschoeman/Projects/wozniak/Andile Wallet/Andile Wallet/Assets.xcassets/logout-75.png"
   inkscape:export-xdpi="96"
   inkscape:export-ydpi="96">
  <defs
     id="defs1126" />
  <sodipodi:namedview
     id="base"
     pagecolor="#ffffff"
     bordercolor="#666666"
     borderopacity="1.0"
     inkscape:pageopacity="0.0"
     inkscape:pageshadow="2"
     inkscape:zoom="9.3466667"
     inkscape:cx="37.5"
     inkscape:cy="37.5"
     inkscape:document-units="mm"
     inkscape:current-layer="layer1"
     showgrid="false"
     units="px"
     inkscape:window-width="1440"
     inkscape:window-height="878"
     inkscape:window-x="0"
     inkscape:window-y="0"
     inkscape:window-maximized="1" />
  <metadata
     id="metadata1129">
    <rdf:RDF>
      <cc:Work
         rdf:about="">
        <dc:format>image/svg+xml</dc:format>
        <dc:type
           rdf:resource="http://purl.org/dc/dcmitype/StillImage" />
        <dc:title></dc:title>
      </cc:Work>
    </rdf:RDF>
  </metadata>
  <g
     inkscape:label="Layer 1"
     inkscape:groupmode="layer"
     id="layer1"
     transform="translate(0,-277.15624)">
    <g
       transform="matrix(0.07324219,0,0,0.07324219,-3.3866667e-7,275.24706)"
       id="layer1-3"
       inkscape:label="Layer 1">
      <g
         inkscape:export-ydpi="461"
         inkscape:export-xdpi="461"
         transform="matrix(2.7947406,0,0,2.8938758,3.0346666e-7,21.262891)"
         id="g962">
        <g
           id="g904">
          <g
             id="g902">
            <path
               inkscape:connector-curvature="0"
               d="M 61.168,83.92 H 11.364 V 13.025 H 61.17 c 1.104,0 2,-0.896 2,-2 V 3.66 c 0,-1.104 -0.896,-2 -2,-2 H 2 c -1.104,0 -2,0.896 -2,2 v 89.623 c 0,1.104 0.896,2 2,2 h 59.168 c 1.105,0 2,-0.896 2,-2 V 85.92 c 0,-1.106 -0.894,-2 -2,-2 z"
               id="path898" />
            <path
               inkscape:connector-curvature="0"
               d="M 96.355,47.058 69.433,20.138 c -0.75,-0.751 -2.078,-0.75 -2.828,0 l -6.387,6.388 c -0.781,0.781 -0.781,2.047 0,2.828 l 12.16,12.162 H 19.737 c -1.104,0 -2,0.896 -2,2 v 9.912 c 0,1.104 0.896,2 2,2 H 72.381 L 60.221,67.59 c -0.781,0.781 -0.781,2.047 0,2.828 l 6.387,6.389 c 0.375,0.375 0.885,0.586 1.414,0.586 0.531,0 1.039,-0.211 1.414,-0.586 l 26.922,-26.92 c 0.375,-0.375 0.586,-0.885 0.586,-1.414 -0.001,-0.532 -0.214,-1.04 -0.589,-1.415 z"
               id="path900" />
          </g>
        </g>
        <g
           id="g906" />
        <g
           id="g908" />
        <g
           id="g910" />
        <g
           id="g912" />
        <g
           id="g914" />
        <g
           id="g916" />
        <g
           id="g918" />
        <g
           id="g920" />
        <g
           id="g922" />
        <g
           id="g924" />
        <g
           id="g926" />
        <g
           id="g928" />
        <g
           id="g930" />
        <g
           id="g932" />
        <g
           id="g934" />
      </g>
    </g>
  </g>
</svg>
