<?xml version="1.0" encoding="UTF-8" standalone="no"?>
<!-- Created with Inkscape (http://www.inkscape.org/) -->

<svg
   xmlns:dc="http://purl.org/dc/elements/1.1/"
   xmlns:cc="http://creativecommons.org/ns#"
   xmlns:rdf="http://www.w3.org/1999/02/22-rdf-syntax-ns#"
   xmlns:svg="http://www.w3.org/2000/svg"
   xmlns="http://www.w3.org/2000/svg"
   xmlns:sodipodi="http://sodipodi.sourceforge.net/DTD/sodipodi-0.dtd"
   xmlns:inkscape="http://www.inkscape.org/namespaces/inkscape"
   width="75"
   height="75"
   viewBox="0 0 19.843749 19.84375"
   version="1.1"
   id="svg1839"
   inkscape:version="0.92.2 5c3e80d, 2017-08-06"
   sodipodi:docname="menu.svg"
   inkscape:export-filename="/Users/stephanschoeman/Projects/wozniak/Andile Wallet/Andile Wallet/Assets.xcassets/menu-75.png"
   inkscape:export-xdpi="96"
   inkscape:export-ydpi="96">
  <defs
     id="defs1833" />
  <sodipodi:namedview
     id="base"
     pagecolor="#ffffff"
     bordercolor="#666666"
     borderopacity="1.0"
     inkscape:pageopacity="0.0"
     inkscape:pageshadow="2"
     inkscape:zoom="14.02"
     inkscape:cx="25"
     inkscape:cy="25"
     inkscape:document-units="mm"
     inkscape:current-layer="layer1"
     showgrid="false"
     units="px"
     inkscape:window-width="1440"
     inkscape:window-height="878"
     inkscape:window-x="0"
     inkscape:window-y="0"
     inkscape:window-maximized="1" />
  <metadata
     id="metadata1836">
    <rdf:RDF>
      <cc:Work
         rdf:about="">
        <dc:format>image/svg+xml</dc:format>
        <dc:type
           rdf:resource="http://purl.org/dc/dcmitype/StillImage" />
        <dc:title></dc:title>
      </cc:Work>
    </rdf:RDF>
  </metadata>
  <g
     inkscape:label="Layer 1"
     inkscape:groupmode="layer"
     id="layer1"
     transform="translate(0,-277.15624)">
    <path
       style="stroke-width:0.70870584"
       inkscape:connector-curvature="0"
       id="path1142"
       d="M 1.4174109,282.82589 H 18.42634 c 0.78243,0 1.41741,-0.63502 1.41741,-1.41742 0,-0.78242 -0.63498,-1.41741 -1.41741,-1.41741 H 1.4174109 c -0.78240045,0 -1.417410816666663,0.63499 -1.417410816666663,1.41741 0,0.7824 0.635010366666663,1.41742 1.417410816666663,1.41742 z M 18.42634,285.6607 H 1.4174109 c -0.78240045,0 -1.417410816666663,0.63502 -1.417410816666663,1.41742 0,0.7824 0.635010366666663,1.41741 1.417410816666663,1.41741 H 18.42634 c 0.78243,0 1.41741,-0.63501 1.41741,-1.41741 0,-0.7824 -0.63498,-1.41742 -1.41741,-1.41742 z m 0,5.66965 H 1.4174109 c -0.78240045,0 -1.417410816666663,0.635 -1.417410816666663,1.41741 0,0.7824 0.635010366666663,1.4174 1.417410816666663,1.4174 H 18.42634 c 0.78243,0 1.41741,-0.63501 1.41741,-1.41741 0,-0.7824 -0.63498,-1.41741 -1.41741,-1.4174 z" />
  </g>
</svg>
