<?xml version="1.0" encoding="UTF-8" standalone="no"?>
<!-- Created with Inkscape (http://www.inkscape.org/) -->

<svg
   xmlns:dc="http://purl.org/dc/elements/1.1/"
   xmlns:cc="http://creativecommons.org/ns#"
   xmlns:rdf="http://www.w3.org/1999/02/22-rdf-syntax-ns#"
   xmlns:svg="http://www.w3.org/2000/svg"
   xmlns="http://www.w3.org/2000/svg"
   xmlns:sodipodi="http://sodipodi.sourceforge.net/DTD/sodipodi-0.dtd"
   xmlns:inkscape="http://www.inkscape.org/namespaces/inkscape"
   width="75"
   height="75"
   viewBox="0 0 19.843749 19.84375"
   version="1.1"
   id="svg966"
   sodipodi:docname="more.svg"
   inkscape:export-filename="/Users/stephanschoeman/Projects/wozniak/Andile Wallet/Andile Wallet/Assets.xcassets/more-75.png"
   inkscape:export-xdpi="96"
   inkscape:export-ydpi="96"
   inkscape:version="0.92.2 5c3e80d, 2017-08-06">
  <defs
     id="defs960" />
  <sodipodi:namedview
     id="base"
     pagecolor="#ffffff"
     bordercolor="#666666"
     borderopacity="1.0"
     inkscape:pageopacity="0.0"
     inkscape:pageshadow="2"
     inkscape:zoom="14.02"
     inkscape:cx="25"
     inkscape:cy="25"
     inkscape:document-units="mm"
     inkscape:current-layer="layer1"
     showgrid="false"
     units="px"
     inkscape:window-width="1440"
     inkscape:window-height="878"
     inkscape:window-x="0"
     inkscape:window-y="0"
     inkscape:window-maximized="1" />
  <metadata
     id="metadata963">
    <rdf:RDF>
      <cc:Work
         rdf:about="">
        <dc:format>image/svg+xml</dc:format>
        <dc:type
           rdf:resource="http://purl.org/dc/dcmitype/StillImage" />
        <dc:title></dc:title>
      </cc:Work>
    </rdf:RDF>
  </metadata>
  <g
     inkscape:label="Layer 1"
     inkscape:groupmode="layer"
     id="layer1"
     transform="translate(0,-277.15624)">
    <g
       transform="matrix(0.05859375,0,0,0.05859375,1.984375,277.61327)"
       id="layer1-4"
       inkscape:label="Layer 1">
      <g
         transform="matrix(4.5155556,0,0,4.5155556,-1.3333334e-6,26.066649)"
         id="g962">
        <g
           id="g904">
          <path
             inkscape:connector-curvature="0"
             d="m 30,16 c 4.411,0 8,-3.589 8,-8 0,-4.411 -3.589,-8 -8,-8 -4.411,0 -8,3.589 -8,8 0,4.411 3.589,8 8,8 z"
             id="path898" />
          <path
             inkscape:connector-curvature="0"
             d="m 30,44 c -4.411,0 -8,3.589 -8,8 0,4.411 3.589,8 8,8 4.411,0 8,-3.589 8,-8 0,-4.411 -3.589,-8 -8,-8 z"
             id="path900" />
          <path
             inkscape:connector-curvature="0"
             d="m 30,22 c -4.411,0 -8,3.589 -8,8 0,4.411 3.589,8 8,8 4.411,0 8,-3.589 8,-8 0,-4.411 -3.589,-8 -8,-8 z"
             id="path902" />
        </g>
        <g
           id="g906" />
        <g
           id="g908" />
        <g
           id="g910" />
        <g
           id="g912" />
        <g
           id="g914" />
        <g
           id="g916" />
        <g
           id="g918" />
        <g
           id="g920" />
        <g
           id="g922" />
        <g
           id="g924" />
        <g
           id="g926" />
        <g
           id="g928" />
        <g
           id="g930" />
        <g
           id="g932" />
        <g
           id="g934" />
      </g>
    </g>
  </g>
</svg>
