<?xml version="1.0" encoding="UTF-8" standalone="no"?>
<!-- Created with Inkscape (http://www.inkscape.org/) -->

<svg
   xmlns:dc="http://purl.org/dc/elements/1.1/"
   xmlns:cc="http://creativecommons.org/ns#"
   xmlns:rdf="http://www.w3.org/1999/02/22-rdf-syntax-ns#"
   xmlns:svg="http://www.w3.org/2000/svg"
   xmlns="http://www.w3.org/2000/svg"
   xmlns:sodipodi="http://sodipodi.sourceforge.net/DTD/sodipodi-0.dtd"
   xmlns:inkscape="http://www.inkscape.org/namespaces/inkscape"
   width="75"
   height="75"
   viewBox="0 0 19.843749 19.84375"
   version="1.1"
   id="svg8"
   inkscape:version="0.92.2 5c3e80d, 2017-08-06"
   sodipodi:docname="ora.svg"
   inkscape:export-filename="/Users/stephanschoeman/Projects/wozniak/Andile Wallet/Andile Wallet/Assets.xcassets/ora-75.png"
   inkscape:export-xdpi="96"
   inkscape:export-ydpi="96">
  <defs
     id="defs2" />
  <sodipodi:namedview
     id="base"
     pagecolor="#ffffff"
     bordercolor="#666666"
     borderopacity="1.0"
     inkscape:pageopacity="0.0"
     inkscape:pageshadow="2"
     inkscape:zoom="28.04"
     inkscape:cx="15.317404"
     inkscape:cy="15.353067"
     inkscape:document-units="mm"
     inkscape:current-layer="layer1"
     showgrid="false"
     units="px"
     inkscape:window-width="1440"
     inkscape:window-height="878"
     inkscape:window-x="0"
     inkscape:window-y="0"
     inkscape:window-maximized="1" />
  <metadata
     id="metadata5">
    <rdf:RDF>
      <cc:Work
         rdf:about="">
        <dc:format>image/svg+xml</dc:format>
        <dc:type
           rdf:resource="http://purl.org/dc/dcmitype/StillImage" />
        <dc:title></dc:title>
      </cc:Work>
    </rdf:RDF>
  </metadata>
  <g
     inkscape:label="Layer 1"
     inkscape:groupmode="layer"
     id="layer1"
     transform="translate(0,-277.15624)">
    <g
       transform="matrix(0.07324219,0,0,0.07324219,-1.0820642e-7,275.24706)"
       id="layer1-9"
       inkscape:label="Layer 1">
      <g
         style="fill:#000000;stroke:none"
         transform="matrix(0.03527778,0,0,-0.03527778,-105.83335,431.05557)"
         id="g1107">
        <path
           style="stroke-width:1.33333337"
           inkscape:connector-curvature="0"
           d="m 6442.3781,11050.667 -4,-430.666 -169.3333,-9.334 c -570.6668,-29.333 -1110.6669,-193.333 -1546.6668,-468 -185.3333,-117.333 -313.3333,-218.6668 -488,-387.9998 -453.3333,-440 -714.6667,-955.9998 -825.3333,-1628 -33.3334,-205.3333 -33.3334,-686.6665 0,-893.3333 116,-703.9999 394.6666,-1233.3333 869.3333,-1646.6667 554.6667,-483.9999 1153.3333,-714.6666 1993.3333,-766.6666 77.3335,-5.3333 148.0002,-14.6666 157.3334,-22.6667 11.9999,-10.6666 16.0001,-128 16.0001,-505.3333 v -492 h 393.3333 393.3333 l 2.6668,504 3.9999,502.6667 93.3334,9.3333 c 51.9999,4 171.9998,14.6667 266.6667,22.6667 910.6664,78.6667 1743.9999,541.3333 2217.3329,1232.0001 287.9999,419.9998 458.6669,972 478.6669,1549.3333 16,437.3333 -90.667,948 -277.333,1340 -301.3339,630.6665 -884.0002,1173.3333 -1533.3337,1426.6663 -337.3332,132 -813.3331,226.667 -1132,226.667 -61.3333,0 -108,6.667 -117.3331,16 -12.0002,12 -16.0002,126.666 -16.0002,433.333 V 11480 h -386.6666 -386.6666 z m -12.0002,-1122.6668 c 10.6667,-13.333 13.3334,-609.333 12.0002,-2242.6662 l -4,-2225.3334 -72,-4 c -97.3333,-5.3332 -397.3335,54.6666 -592.0001,117.3335 -387.9999,127.9998 -754.6666,361.3332 -998.6666,635.9998 -444,500.0001 -629.3334,1302.6668 -476,2060.0001 173.3333,861.3332 862.6665,1476.0002 1845.3333,1649.3332 178.6667,32 265.3334,34.667 285.3332,9.333 z m 1185.3334,-29.333 c 534.6668,-109.333 1044,-393.333 1334.6668,-745.333 389.333,-470.6668 544,-1100.0002 446.667,-1816.0003 -86.667,-638.6666 -397.3336,-1138.6667 -930.6669,-1497.3332 -133.3333,-88.0001 -392.0001,-213.3335 -548,-265.3334 -272.0001,-87.9999 -622.6667,-145.3333 -666.6669,-108 -17.3331,14.6666 -19.9999,261.3334 -19.9999,2240.0001 0,1221.3333 4,2226.6668 10.6667,2231.9998 14.6667,16 190.6667,-2.666 373.3332,-40 z"
           id="path1103" />
      </g>
    </g>
  </g>
</svg>
