<?xml version="1.0" encoding="UTF-8" standalone="no"?>
<!-- Created with Inkscape (http://www.inkscape.org/) -->

<svg
   xmlns:dc="http://purl.org/dc/elements/1.1/"
   xmlns:cc="http://creativecommons.org/ns#"
   xmlns:rdf="http://www.w3.org/1999/02/22-rdf-syntax-ns#"
   xmlns:svg="http://www.w3.org/2000/svg"
   xmlns="http://www.w3.org/2000/svg"
   xmlns:sodipodi="http://sodipodi.sourceforge.net/DTD/sodipodi-0.dtd"
   xmlns:inkscape="http://www.inkscape.org/namespaces/inkscape"
   width="50"
   height="50"
   viewBox="0 0 13.229167 13.229167"
   version="1.1"
   id="svg2084"
   inkscape:version="0.92.2 5c3e80d, 2017-08-06"
   sodipodi:docname="rhino.svg"
   inkscape:export-filename="/Users/stephanschoeman/Projects/wozniak/Andile Wallet/Andile Wallet/Assets.xcassets/rhino-50.png"
   inkscape:export-xdpi="96"
   inkscape:export-ydpi="96">
  <defs
     id="defs2078" />
  <sodipodi:namedview
     id="base"
     pagecolor="#ffffff"
     bordercolor="#666666"
     borderopacity="1.0"
     inkscape:pageopacity="0.0"
     inkscape:pageshadow="2"
     inkscape:zoom="14.02"
     inkscape:cx="37.303852"
     inkscape:cy="25"
     inkscape:document-units="mm"
     inkscape:current-layer="layer1"
     showgrid="false"
     units="px"
     inkscape:window-width="1440"
     inkscape:window-height="878"
     inkscape:window-x="0"
     inkscape:window-y="0"
     inkscape:window-maximized="1" />
  <metadata
     id="metadata2081">
    <rdf:RDF>
      <cc:Work
         rdf:about="">
        <dc:format>image/svg+xml</dc:format>
        <dc:type
           rdf:resource="http://purl.org/dc/dcmitype/StillImage" />
        <dc:title></dc:title>
      </cc:Work>
    </rdf:RDF>
  </metadata>
  <g
     inkscape:label="Layer 1"
     inkscape:groupmode="layer"
     id="layer1"
     transform="translate(0,-283.77083)">
    <g
       id="g2571"
       transform="matrix(0.04882812,0,0,0.04882812,7.1313477,281.82625)"
       inkscape:export-xdpi="96"
       inkscape:export-ydpi="96">
      <g
         id="g2611">
        <g
           id="g2619"
           transform="matrix(2.0009901,0,0,2.0009901,-222.35473,-122.58311)">
          <path
             style="fill:#cfcfcf;stroke-width:0.26458332"
             d="m 90.992134,215.95075 c -2.176468,-1.1496 -3.239349,-3.53883 -3.267768,-7.34556 l -0.015,-2.00836 -1.058333,-0.44032 c -0.582084,-0.24218 -1.83224,-1.03073 -2.778125,-1.75234 -1.458886,-1.11296 -1.900417,-1.31394 -2.910417,-1.32477 -2.737204,-0.0293 -5.769773,-1.27986 -7.830846,-3.22913 -3.229665,-3.05449 -3.810809,-5.03685 -3.810809,-12.99917 v -5.78222 l -1.862847,-0.8277 -1.862846,-0.8277 0.100436,-29.24684 c 0.08752,-25.48757 0.154604,-29.50191 0.521877,-31.23122 0.54551,-2.56855 1.60016,-6.15388 2.267614,-7.70887 l 0.526492,-1.22657 -1.673204,-0.71112 c -3.747469,-1.5927 -7.823555,-4.94475 -9.611771,-7.90445 -0.483244,-0.79982 -1.1926,-2.327495 -1.576347,-3.394833 -0.625187,-1.738865 -0.698882,-2.325703 -0.708876,-5.64478 -0.0083,-2.765432 0.10832,-4.136976 0.460275,-5.411996 0.52077,-1.886581 2.151422,-5.648745 2.498509,-5.76444 0.121515,-0.04051 5.753771,2.560292 12.516125,5.779549 l 12.295187,5.853196 1.058333,-0.60202 c 4.955672,-2.81897 8.553397,-4.218913 13.657895,-5.314545 3.979302,-0.85412 11.831982,-0.85412 15.811292,0 5.1045,1.095632 8.70222,2.495575 13.65789,5.314545 l 1.05834,0.60202 12.29518,-5.853196 c 6.76236,-3.219257 12.39461,-5.820054 12.51613,-5.779549 0.34709,0.115695 1.97774,3.877859 2.49851,5.76444 0.35195,1.27502 0.4686,2.646564 0.46027,5.411996 -0.01,3.319077 -0.0837,3.905915 -0.70887,5.64478 -0.38375,1.067338 -1.09311,2.595013 -1.57635,3.394833 -1.75758,2.90899 -5.52527,6.04858 -9.32767,7.77266 -0.95557,0.43328 -1.73741,0.90125 -1.73741,1.03994 0,0.13869 0.24083,0.86315 0.53518,1.60992 0.66627,1.69035 1.47702,4.53099 2.03455,7.12849 0.37325,1.73899 0.43834,5.60108 0.52636,31.23122 l 0.10043,29.24684 -1.86284,0.8277 -1.86285,0.8277 -0.005,5.37962 c -0.007,7.92482 -0.59242,10.07016 -3.56635,13.06423 -2.21294,2.22792 -5.25722,3.54008 -8.28219,3.56981 -0.75796,0.007 -1.36768,0.30602 -2.69895,1.32163 -0.94589,0.72161 -2.19604,1.51026 -2.77813,1.75255 l -1.05833,0.44054 -0.0188,2.16036 c -0.0325,3.72945 -1.08097,6.0401 -3.26394,7.19313 -1.59626,0.84312 -3.91558,0.81733 -7.60785,-0.0846 -2.51136,-0.61348 -3.41022,-0.70053 -7.23335,-0.70053 -3.82313,0 -4.72199,0.0871 -7.233352,0.70053 -3.692263,0.90194 -6.011584,0.92773 -7.607845,0.0846 z m 7.432865,-7.0894 c 4.128031,-0.86723 11.080441,-0.8171 15.345831,0.11066 1.67349,0.364 3.14561,0.59892 3.27138,0.52206 0.21645,-0.13229 0.0771,-2.10256 -0.16592,-2.34555 -0.0627,-0.0627 -2.57303,-0.46257 -5.57849,-0.88857 l -5.46447,-0.77454 -5.48978,0.77813 c -3.019387,0.42797 -5.514304,0.77813 -5.544266,0.77813 -0.02996,0 -0.132482,0.41582 -0.227827,0.92405 -0.222057,1.18367 0.01032,1.79926 0.611092,1.61877 0.255378,-0.0767 1.714481,-0.40213 3.24245,-0.72314 z m -1.907979,-9.24062 c 7.01871,-1.45401 11.49022,-1.45047 18.67862,0.0148 5.08114,1.03572 5.98633,0.98643 8.06289,-0.43911 1.41613,-0.97216 1.50918,-1.10566 1.81822,-2.60894 0.17915,-0.87139 0.47238,-3.94076 0.65163,-6.82083 l 0.3259,-5.23649 2.69119,-2.40735 c 3.06074,-2.73791 6.03825,-4.8729 8.63942,-6.19477 l 1.78594,-0.90759 v -25.46976 c 0,-15.7591 -0.10308,-26.2918 -0.27035,-27.62587 -0.57303,-4.56998 -1.91089,-8.43745 -4.53941,-13.12245 -0.88161,-1.57136 -1.54715,-2.9128 -1.47898,-2.98097 0.0682,-0.0682 1.58721,-0.54114 3.37564,-1.05103 4.23196,-1.20656 6.47168,-2.16454 8.58305,-3.67119 3.13031,-2.233735 4.78598,-5.485746 4.60038,-9.03591 l -0.0839,-1.604465 -9.78958,4.651445 c -5.38428,2.558294 -10.28705,4.872105 -10.89506,5.1418 l -1.10548,0.49036 -2.06952,-1.44313 c -4.09535,-2.855786 -7.8356,-4.51086 -12.52057,-5.540382 -3.97493,-0.873494 -10.31256,-0.873494 -14.287498,0 -4.684966,1.029522 -8.425222,2.684596 -12.520564,5.540382 l -2.069523,1.44313 -1.105477,-0.49036 c -0.608012,-0.269695 -5.510789,-2.583506 -10.895059,-5.1418 l -9.789583,-4.651445 -0.08388,1.60446 c -0.185592,3.550164 1.470079,6.802175 4.600386,9.035915 2.111372,1.50664 4.351085,2.46463 8.583048,3.67118 1.788427,0.50989 3.307464,0.98286 3.375636,1.05103 0.06817,0.0682 -0.597366,1.40961 -1.478978,2.98098 -2.628517,4.685 -3.966377,8.55246 -4.539403,13.12244 -0.167278,1.33407 -0.270354,11.86662 -0.270354,27.62539 v 25.46928 l 1.653645,0.83377 c 3.184467,1.60561 7.199384,4.62804 10.029576,7.55028 l 1.496761,1.54544 0.171202,3.30729 c 0.09416,1.81901 0.344088,4.73604 0.555392,6.48229 0.368128,3.04227 0.419666,3.20543 1.232844,3.90293 1.245058,1.06794 2.8467,1.78517 3.986974,1.7854 0.551339,1.2e-4 2.753995,-0.36264 4.894792,-0.80614 z m -2.854521,-4.41607 c -0.5178,-0.26063 -1.155266,-0.89422 -1.446008,-1.43722 -0.476907,-0.89069 -0.494488,-1.1459 -0.212315,-3.08188 0.356227,-2.44408 0.176249,-3.38625 -0.974043,-5.09899 -0.426458,-0.63499 -0.726889,-1.20301 -0.667623,-1.26227 0.200586,-0.20059 3.42333,1.09751 4.887489,1.96865 3.483441,2.07255 4.429818,4.47867 2.862908,7.2788 -0.948682,1.69533 -2.902315,2.41214 -4.450408,1.63291 z m 21.859691,0.18623 c -2.38162,-0.71308 -3.53199,-3.88781 -2.29053,-6.32127 0.28553,-0.5597 0.99307,-1.39298 1.57229,-1.85173 1.59519,-1.26342 6.37521,-3.36965 6.37521,-2.80913 0,0.0983 -0.27862,0.55764 -0.61917,1.02087 -1.08714,1.47881 -1.32598,2.42063 -1.1057,4.36011 0.39213,3.45263 -0.009,4.83747 -1.59149,5.49881 -1.00413,0.41955 -1.24587,0.43012 -2.34061,0.10234 z m -14.71594,-15.48332 c -2.512373,-0.53923 -3.782921,-1.08237 -5.515436,-2.35778 -2.850713,-2.09857 -4.009565,-4.81978 -4.009565,-9.41524 0,-4.77163 1.136947,-9.94695 3.50125,-15.93749 l 1.335238,-3.38315 -0.527997,-0.5856 c -2.451269,-2.71869 -2.577108,-7.52939 -0.36535,-13.96702 1.59698,-4.64822 3.791807,-8.57233 7.64419,-13.66694 3.28459,-4.34372 2.90793,-3.9481 3.29548,-3.46137 5.55813,6.9805 8.4441,11.78987 10.27821,17.12831 2.21176,6.43763 2.08592,11.24833 -0.36535,13.96702 l -0.52799,0.5856 1.33524,3.38315 c 2.3643,5.99054 3.50124,11.16586 3.50124,15.93749 0,3.27109 -0.42601,5.02017 -1.71259,7.03143 -0.93151,1.45618 -2.8246,2.99914 -4.6773,3.81224 -2.93166,1.28662 -9.40084,1.74245 -13.18927,0.92935 z m 10.17984,-7.16101 c 0.87464,-0.33838 1.52779,-0.81802 1.94658,-1.42947 0.60321,-0.8807 0.62432,-1.06223 0.49153,-4.2275 -0.17102,-4.07645 -1.1058,-7.95229 -3.06361,-12.70254 -1.47253,-3.57281 -4.02323,-8.51661 -4.47108,-8.66589 -0.38734,-0.12912 -2.52344,3.88126 -4.33155,8.13218 -2.085441,4.90295 -3.136374,9.04995 -3.323218,13.11353 -0.202845,4.4116 0.227587,5.18626 3.368778,6.06288 2.0807,0.58067 7.57866,0.41473 9.38257,-0.28319 z m -7.53745,-36.28249 c 1.20686,-1.78263 2.28861,-3.24115 2.4039,-3.24115 0.11528,0 1.2506,1.54675 2.52292,3.43721 1.27232,1.89047 2.36721,3.38331 2.43309,3.31743 0.62802,-0.62802 -4.07591,-11.51714 -4.97522,-11.51714 -0.32808,0 -2.4504,3.8299 -3.3722,6.08542 -1.27042,3.10857 -2.06835,6.12593 -1.43083,5.41073 0.12323,-0.13825 1.21148,-1.70987 2.41834,-3.4925 z M 81.5297,158.84879 c -1.287578,-0.37057 -2.870274,-1.49213 -3.46612,-2.45623 -1.407242,-2.27696 -0.66448,-4.73415 1.824021,-6.03415 4.531143,-2.3671 10.682057,1.22897 9.294328,5.43383 -0.83643,2.5344 -4.450551,3.978 -7.652229,3.05655 z m 44.0481,-0.0854 c -2.3167,-0.82578 -3.71395,-3.14167 -3.11055,-5.15562 1.37848,-4.60097 9.11581,-5.50879 11.34507,-1.33112 2.12749,3.98693 -3.28533,8.25088 -8.23452,6.48674 z m -46.067204,36.57047 c -0.07649,-0.32742 -0.250994,-2.13214 -0.387789,-4.01048 l -0.248719,-3.41518 -1.127548,-1.14888 c -0.620154,-0.63189 -1.233241,-1.14889 -1.362416,-1.14889 -0.129858,0 -0.19395,1.63553 -0.143352,3.65799 0.08598,3.43657 0.133948,3.72206 0.792465,4.71654 0.385519,0.5822 1.099894,1.25511 1.587499,1.49536 1.111785,0.54778 1.054251,0.55725 0.88986,-0.14646 z m 54.452464,-0.70887 c 1.24022,-1.37278 1.50036,-2.44512 1.50213,-6.19199 l 0.002,-3.13055 -1.30126,1.14618 c -1.44496,1.27275 -1.37694,1.01017 -1.75344,6.76857 -0.18772,2.87106 0.0413,3.07894 1.5511,1.40779 z"
             id="path2583"
             inkscape:connector-curvature="0" />
          <path
             style="fill:#9f9f9f;stroke-width:0.26458332"
             d="m 91.239453,216.03198 c -2.259406,-1.19363 -3.397787,-3.62396 -3.397787,-7.25395 v -2.13633 l -1.336267,-0.61303 c -0.734947,-0.33716 -1.983423,-1.14014 -2.774387,-1.78439 -1.128865,-0.91947 -1.652283,-1.1722 -2.434044,-1.17527 -3.013038,-0.0118 -6.767065,-1.65506 -8.748914,-3.8296 -2.682589,-2.94341 -3.204659,-5.00368 -3.218928,-12.70295 l -0.01029,-5.55625 -1.863868,-0.78355 -1.863871,-0.78356 0.104704,-29.11436 c 0.09043,-25.14461 0.161287,-29.38493 0.519689,-31.09874 0.552688,-2.64285 1.312497,-5.30131 2.129658,-7.45136 l 0.669988,-1.76281 -2.275594,-1.09191 c -6.100071,-2.92702 -9.895631,-7.37414 -11.075908,-12.977248 -0.495199,-2.350845 -0.364908,-6.431255 0.281788,-8.824955 0.400775,-1.483442 1.757938,-4.943918 2.228694,-5.682693 0.173076,-0.271616 3.047095,0.987417 12.532366,5.490104 6.769285,3.213399 12.44382,5.842544 12.610079,5.842544 0.166258,0 0.754208,-0.285282 1.306549,-0.633961 9.469011,-5.977524 22.73932,-7.536897 33.77793,-3.969188 2.37099,0.76631 6.43254,2.614051 8.38011,3.812399 0.70682,0.434913 1.41701,0.79075 1.57819,0.79075 0.16118,0 5.83156,-2.629145 12.60084,-5.842544 9.48528,-4.502687 12.35929,-5.76172 12.53237,-5.490104 0.47076,0.738775 1.82792,4.199251 2.22869,5.682693 0.6467,2.3937 0.77699,6.47411 0.28179,8.824955 -1.18028,5.603108 -4.97583,10.050228 -11.0759,12.977248 l -2.2756,1.09191 0.66999,1.76281 c 0.81716,2.15005 1.57697,4.80851 2.12966,7.45136 0.3584,1.71379 0.42926,5.95361 0.51968,31.09321 l 0.1047,29.10883 -1.93101,0.83107 -1.93101,0.83107 -0.14989,6.5726 c -0.0824,3.61493 -0.27492,6.93317 -0.42774,7.37388 -0.91403,2.63591 -2.76214,4.88272 -5.20175,6.32397 -1.55755,0.92015 -4.41287,1.73829 -6.06671,1.73829 -0.65607,0 -1.30265,0.31754 -2.43162,1.19421 -0.84585,0.65682 -2.11682,1.45979 -2.82437,1.78439 l -1.28646,0.59018 v 2.26951 c 0,2.63471 -0.45443,4.21282 -1.62048,5.62743 -1.80989,2.19571 -3.94965,2.50868 -8.99344,1.31541 -2.63447,-0.62326 -3.55948,-0.71261 -7.37775,-0.71261 -3.81827,0 -4.74328,0.0894 -7.37774,0.71261 -3.586959,0.84861 -5.841384,0.9042 -7.216135,0.17793 z m 6.794561,-7.01596 c 2.702486,-0.57261 3.850866,-0.67148 7.799316,-0.67148 3.94845,0 5.09683,0.0989 7.79932,0.67148 1.74301,0.36931 3.26106,0.67148 3.37344,0.67148 0.11238,0 0.20432,-0.58206 0.20432,-1.29347 0,-1.51058 0.7861,-1.23687 -6.54843,-2.28009 l -4.82865,-0.6868 -4.82864,0.6868 c -7.334536,1.04322 -6.548441,0.76951 -6.548441,2.28009 0,0.71141 0.09195,1.29347 0.204327,1.29347 0.112379,0 1.630426,-0.30217 3.373438,-0.67148 z m -1.172179,-9.43528 c 3.570975,-0.79281 4.138495,-0.84634 8.971495,-0.84634 4.833,0 5.40053,0.0535 8.9715,0.84634 2.09667,0.46549 4.36524,0.84634 5.04128,0.84634 1.38066,0 3.52451,-0.93744 4.48711,-1.96207 0.76347,-0.81268 1.27226,-4.04234 1.50407,-9.5473 l 0.16712,-3.96875 1.62227,-1.67358 c 2.61816,-2.70097 7.04923,-5.96864 10.42911,-7.69088 l 1.13391,-0.5778 -0.084,-27.04345 -0.084,-27.04345 -0.70883,-2.64584 c -1.0813,-4.0361 -2.09758,-6.42151 -4.48948,-10.53766 -0.57734,-0.99352 -0.99922,-1.85689 -0.93751,-1.9186 0.0617,-0.0617 1.64992,-0.53261 3.52935,-1.04644 8.32321,-2.27554 12.39234,-5.745473 13.03927,-11.119141 0.1185,-0.984302 0.14513,-2.115939 0.0592,-2.514749 l -0.15628,-0.72511 -5.95313,2.830135 c -3.27422,1.556574 -8.16842,3.878542 -10.876,5.159928 l -4.92288,2.329797 -1.95629,-1.398372 c -3.94098,-2.817051 -8.08771,-4.643405 -12.93649,-5.697661 -3.11189,-0.676609 -10.59948,-0.690969 -13.626043,-0.02613 -4.869907,1.069759 -9.254603,2.985344 -13.031686,5.693279 -1.055552,0.756764 -1.964129,1.375934 -2.019062,1.375934 -0.05493,0 -4.132392,-1.91789 -9.061021,-4.261984 -4.928631,-2.344093 -9.838536,-4.665504 -10.910904,-5.15869 l -1.949759,-0.896702 0.110242,2.446711 c 0.14355,3.185952 0.911375,4.929071 3.125552,7.095644 2.052167,2.008041 5.320734,3.614681 9.901713,4.867111 1.879434,0.51383 3.467645,0.98473 3.529354,1.04644 0.06171,0.0617 -0.360169,0.92508 -0.937509,1.9186 -2.391904,4.11615 -3.408187,6.50156 -4.489478,10.53766 l -0.708832,2.64584 -0.08403,27.0256 -0.08403,27.02561 1.795354,0.99698 c 3.648617,2.02611 7.65145,5.07149 10.300138,7.83641 l 1.096449,1.14456 0.176554,3.83646 c 0.251653,5.46837 0.792512,8.93933 1.512358,9.70557 0.940512,1.00112 3.095615,1.93609 4.462701,1.93609 0.676037,0 2.944614,-0.38085 5.04128,-0.84634 z m -2.764744,-4.21039 c -1.875362,-0.50696 -2.486621,-1.99655 -2.033577,-4.95564 0.354914,-2.31814 0.06803,-3.54253 -1.228267,-5.24206 l -0.731084,-0.9585 0.654688,0.19862 c 3.364743,1.0208 6.373095,2.84084 7.374887,4.46177 0.658257,1.06509 0.751274,3.26571 0.184107,4.35579 -0.868817,1.66984 -2.639327,2.56753 -4.220754,2.14002 z m 21.436809,-0.10392 c -1.26739,-0.43571 -1.69238,-0.80728 -2.31157,-2.021 -0.60589,-1.18765 -0.65937,-2.87421 -0.12396,-3.90958 0.93239,-1.80304 4.12222,-3.88492 7.54137,-4.92197 0.64232,-0.19482 0.64504,-0.18891 0.19911,0.43337 -1.45939,2.03654 -1.58039,2.53243 -1.38417,5.67276 l 0.18529,2.9655 -0.75176,0.82994 c -0.97178,1.07285 -2.08323,1.38795 -3.35431,0.95098 z m -14.59536,-15.36354 c -4.130844,-0.81664 -7.59675,-3.40804 -8.911007,-6.66263 -0.550587,-1.36345 -0.612439,-1.93031 -0.598953,-5.48922 0.01278,-3.37057 0.125632,-4.44263 0.748784,-7.11284 0.763,-3.26946 1.960647,-6.91947 3.305328,-10.07347 l 0.784672,-1.84049 -0.806365,-0.91839 c -1.36389,-1.55339 -1.648227,-2.51649 -1.649489,-5.5871 -0.0028,-6.71483 3.30427,-14.25392 10.03165,-22.8693 0.97323,-1.24636 1.86881,-2.26611 1.99017,-2.26611 0.12137,0 1.01694,1.01975 1.99017,2.26611 6.72738,8.61538 10.03441,16.15447 10.03165,22.8693 -10e-4,3.07061 -0.2856,4.03371 -1.64949,5.5871 l -0.80636,0.91839 0.78467,1.84049 c 1.34468,3.154 2.54233,6.80401 3.30533,10.07347 0.62315,2.67021 0.73601,3.74227 0.74878,7.11284 0.0135,3.55891 -0.0484,4.12577 -0.59895,5.48922 -1.34559,3.33219 -4.80441,5.86402 -9.13272,6.6851 -2.53717,0.48129 -7.07351,0.47064 -9.56787,-0.0225 z m 10.18646,-7.1657 c 2.02025,-0.92255 2.23597,-1.33679 2.33943,-4.49238 0.18071,-5.51182 -1.79812,-12.12847 -6.02293,-20.13908 -0.78667,-1.49159 -1.52538,-2.71198 -1.64158,-2.71198 -0.36983,0 -4.66786,9.02284 -5.61628,11.79022 -1.319851,3.85117 -2.023931,7.55335 -2.019324,10.61795 0.0042,2.80644 0.236415,3.55425 1.363326,4.39074 1.279758,0.94996 3.015078,1.24555 6.834858,1.16425 2.93102,-0.0624 3.78549,-0.17357 4.7625,-0.61972 z m -7.90564,-35.80393 c 1.2194,-1.81561 2.30169,-3.42238 2.40509,-3.57058 0.22914,-0.32846 0.38342,-0.13163 3.15688,4.02743 1.18874,1.78263 2.18639,3.24114 2.21698,3.24114 0.0896,0 -0.29936,-1.88678 -0.64656,-3.13596 -0.68277,-2.4565 -4.00644,-9.29021 -4.51842,-9.29021 -0.51198,0 -3.83564,6.83371 -4.51841,9.29021 -0.47983,1.72634 -0.7357,3.20697 -0.51132,2.95881 0.10926,-0.12085 1.19636,-1.70522 2.41576,-3.52084 z m -21.988628,21.71663 c -3.650358,-1.30049 -4.969952,-5.06011 -2.585924,-7.36749 1.180881,-1.1429 2.545702,-1.65747 4.359714,-1.6437 2.788661,0.0212 5.03541,1.28973 5.951283,3.36021 1.708515,3.86239 -3.025401,7.3253 -7.725073,5.65098 z m 44.973808,0.25498 c -3.11704,-0.94816 -4.58732,-3.43361 -3.49368,-5.90596 1.60616,-3.63099 7.45876,-4.57841 10.26778,-1.66214 1.23082,1.2778 1.52899,2.27413 1.12185,3.74865 -0.75787,2.74477 -4.87761,4.73759 -7.89595,3.81945 z m -46.703448,36.03211 c -0.07961,-0.5457 -0.239172,-2.3831 -0.354584,-4.0831 l -0.209843,-3.09091 -1.302187,-1.17958 -1.302186,-1.17958 -0.07411,3.4523 c -0.06756,3.14676 -0.02072,3.55981 0.529166,4.66698 0.532707,1.07259 1.990252,2.40608 2.629911,2.40608 0.125719,0 0.163449,-0.44649 0.08384,-0.99219 z m 53.738198,0.44968 c 0.48278,-0.29837 1.15168,-0.98298 1.48643,-1.52135 0.54705,-0.87978 0.61793,-1.36394 0.70034,-4.78368 l 0.0917,-3.80484 -1.24159,1.02671 c -1.51698,1.25443 -1.7162,1.73167 -1.7335,4.15279 -0.007,1.04555 -0.10295,2.70467 -0.21217,3.68694 -0.10922,0.98227 -0.14692,1.78594 -0.0838,1.78594 0.0631,0 0.5098,-0.24413 0.99259,-0.54251 z"
             id="path2581"
             inkscape:connector-curvature="0" />
          <path
             style="fill:#707070;stroke-width:0.26458332"
             d="m 91.394824,216.08396 c -2.290691,-1.0789 -3.552274,-3.73124 -3.554137,-7.47215 l -0.0011,-1.96702 -1.683573,-0.87049 c -0.925965,-0.47878 -2.145913,-1.25873 -2.711,-1.73322 -0.881758,-0.74041 -1.364652,-0.91009 -3.405939,-1.19677 -5.702829,-0.80094 -9.583263,-4.45296 -10.440032,-9.82556 -0.150838,-0.94588 -0.275153,-4.04834 -0.276254,-6.89433 l -0.002,-5.17455 -1.852083,-0.82291 -1.852084,-0.82292 0.0042,-26.54629 c 0.0042,-26.42736 0.123663,-30.84072 0.94252,-34.81064 0.358486,-1.73799 1.700625,-6.05321 2.333696,-7.50326 0.145341,-0.33291 -0.396819,-0.71049 -2.573099,-1.79202 -3.004811,-1.49327 -5.788905,-3.64802 -7.407395,-5.73296 -4.110036,-5.294538 -4.696323,-12.565042 -1.5781,-19.569906 0.51823,-1.164166 0.966491,-2.147283 0.996136,-2.184704 0.02965,-0.03742 5.677088,2.604959 12.549873,5.871954 l 12.495971,5.939992 1.494462,-0.955995 c 9.080825,-5.808934 22.404774,-7.338949 33.526124,-3.84987 2.54924,0.799768 6.34564,2.54165 8.39071,3.84987 l 1.49446,0.955995 12.49598,-5.939992 c 6.87278,-3.266995 12.52022,-5.909375 12.54987,-5.871954 0.0296,0.03742 0.4779,1.020538 0.99613,2.184704 3.11823,7.004864 2.53194,14.275368 -1.5781,19.569906 -1.61848,2.08494 -4.40258,4.23969 -7.4074,5.73296 -2.17628,1.08153 -2.71844,1.45911 -2.5731,1.79202 0.63307,1.45005 1.97521,5.76527 2.3337,7.50326 0.81883,3.96979 0.93835,8.38328 0.94252,34.80388 l 0.004,26.53953 -1.98438,0.90431 -1.98437,0.90431 v 6.06423 c 0,6.93271 -0.25454,8.26825 -2.07406,10.88246 -1.90607,2.73855 -4.63794,4.26669 -8.64157,4.83386 -1.76226,0.24964 -2.28869,0.4442 -3.14409,1.16198 -0.56509,0.47417 -1.78503,1.25385 -2.711,1.73263 l -1.68357,0.87049 -0.001,1.96702 c -0.002,3.90032 -1.39171,6.63801 -3.84545,7.5751 -1.46972,0.56129 -3.68193,0.41945 -7.13574,-0.45754 -2.03236,-0.51606 -3.05964,-0.60465 -7.01146,-0.60465 -3.96666,0 -4.97145,0.0873 -7.011449,0.60907 -3.404849,0.87088 -6.056098,0.99588 -7.42705,0.35017 z m 5.453232,-6.76762 c 5.083254,-1.30596 12.887304,-1.30596 17.970554,0 2.31904,0.5958 2.3918,0.56749 2.3918,-0.93073 0,-1.53515 0.67981,-1.29232 -6.41614,-2.29192 l -4.96094,-0.69884 -4.96094,0.69884 c -7.095943,0.9996 -6.416141,0.75677 -6.416141,2.29192 0,1.49822 0.07277,1.52653 2.391807,0.93073 z m 0.278363,-9.73453 c 3.530401,-0.7828 4.173851,-0.84527 8.706911,-0.84527 4.53306,0 5.17651,0.0625 8.70692,0.84527 4.60534,1.02116 6.35914,1.07693 7.85934,0.24996 1.94206,-1.07055 2.4581,-1.63726 2.74233,-3.01159 0.39137,-1.89246 0.79927,-6.75504 0.79952,-9.53126 l 2.2e-4,-2.42253 2.34657,-2.20767 c 2.76896,-2.60507 5.86226,-4.88168 8.7019,-6.40443 l 2.04841,-1.09847 0.0771,-25.92739 c 0.0538,-18.08911 -0.0124,-26.55971 -0.21892,-28.01899 -0.60105,-4.2471 -2.00703,-8.12177 -4.62372,-12.74227 -0.80273,-1.41744 -1.42809,-2.6079 -1.38968,-2.64547 0.0384,-0.0376 0.84373,-0.26343 1.78961,-0.50193 7.91588,-1.9959 11.93138,-4.43397 13.8799,-8.42741 0.97991,-2.008271 1.45885,-4.789425 1.02171,-5.932895 -0.21927,-0.573593 -0.55689,-0.434442 -11.10223,4.575879 l -10.87608,5.167456 -2.1983,-1.574599 c -4.0874,-2.927735 -8.82959,-4.871991 -13.98626,-5.734249 -3.28283,-0.548928 -9.61524,-0.425589 -12.679107,0.246956 -4.512519,0.990538 -8.927333,2.944191 -12.576865,5.565545 L 84.072812,100.70251 73.20882,95.53579 c -5.975194,-2.841698 -10.915696,-5.115019 -10.978891,-5.051824 -0.349213,0.349213 -0.319295,2.634435 0.05354,4.089763 0.653007,2.548933 1.165856,3.441416 3.052999,5.312966 2.416762,2.396795 5.718767,3.935745 11.657279,5.433075 0.945885,0.2385 1.751301,0.46445 1.789814,0.50213 0.03851,0.0377 -0.652447,1.34362 -1.535465,2.90209 -1.877941,3.31446 -2.948524,5.88303 -3.915925,9.39517 l -0.698543,2.53605 -0.07719,27.19348 -0.07719,27.19348 0.83199,0.45548 c 4.361156,2.38753 6.95689,4.2833 10.465291,7.64323 l 1.887985,1.80808 0.175903,4.03677 c 0.09675,2.22023 0.347332,5.17875 0.556855,6.57449 0.416706,2.7759 0.569709,3.00364 2.869808,4.27155 1.500201,0.82697 3.254002,0.7712 7.859345,-0.24996 z m -3.899723,-4.56953 c -0.304451,-0.21324 -0.76127,-0.82546 -1.015153,-1.36048 -0.409522,-0.863 -0.425638,-1.19574 -0.14283,-2.94885 0.395933,-2.45437 0.228811,-3.38577 -0.911569,-5.08037 -0.494144,-0.73429 -0.857136,-1.33508 -0.806648,-1.33508 0.583736,0 4.646337,1.84346 5.72807,2.5992 2.414497,1.68684 3.254787,4.18761 2.147585,6.39136 -0.917641,1.82645 -3.559444,2.74284 -4.999455,1.73422 z m 21.419924,-0.16182 c -0.98795,-0.63284 -1.93412,-2.42389 -1.93412,-3.6612 0,-2.10354 1.77312,-4.03095 5.13428,-5.58104 1.17797,-0.54326 2.39803,-1.04847 2.71125,-1.1227 0.54034,-0.12807 0.53001,-0.0727 -0.20174,1.08114 -1.13423,1.7885 -1.32137,2.73157 -0.97901,4.93368 0.35177,2.26272 0.17734,3.12533 -0.83715,4.13981 -0.94835,0.94836 -2.60187,1.03767 -3.89351,0.21031 z m -11.98829,-14.68642 c -4.037476,-0.72144 -6.021298,-1.5315 -7.978934,-3.25805 -2.582185,-2.27738 -3.548044,-5.17943 -3.311117,-9.9487 0.248433,-5.00088 1.605989,-10.34443 4.142277,-16.30462 l 0.795721,-1.86991 -0.882534,-1.03104 c -3.171621,-3.70533 -1.673545,-12.60975 3.601667,-21.40797 1.56659,-2.61282 6.45366,-9.26041 6.80792,-9.26041 0.35427,0 5.24133,6.64759 6.80792,9.26041 5.27647,8.80031 6.77336,17.70256 3.60003,21.40989 l -0.88418,1.03296 0.55843,1.28014 c 2.78303,6.37976 4.47607,13.2666 4.46597,18.16647 -0.0125,6.06689 -2.94198,9.8954 -8.72733,11.40561 -1.66188,0.43382 -7.57521,0.77907 -8.99584,0.52522 z m 7.74332,-7.18077 c 2.90325,-0.77938 3.68586,-2.63569 3.10656,-7.3685 -0.51948,-4.24403 -1.8348,-8.66894 -4.08389,-13.73873 -0.92723,-2.09012 -3.36036,-6.48229 -3.59099,-6.48229 -0.0997,0 -0.7892,1.10133 -1.53214,2.4474 -5.300262,9.60308 -7.842794,20.9957 -5.325527,23.8627 1.596537,1.81835 7.116157,2.43641 11.425987,1.27942 z m -4.56832,-39.75418 c 0.0728,0 1.29315,1.72632 2.71198,3.83628 1.41883,2.10995 2.57969,3.68531 2.57969,3.50078 0,-1.72613 -3.42331,-10.1035 -4.88643,-11.95786 -0.40114,-0.5084 -0.40933,-0.5084 -0.81047,0 -1.46313,1.85436 -4.88643,10.23173 -4.88643,11.95786 0,0.18453 1.16085,-1.39083 2.57968,-3.50078 1.41883,-2.10996 2.63922,-3.83628 2.71198,-3.83628 z m -24.12456,25.56668 c -2.497936,-0.69838 -4.183152,-2.59015 -4.184864,-4.69779 -0.0013,-1.65851 0.818923,-2.8276 2.626416,-3.74329 2.882738,-1.46042 6.918007,-0.48508 8.485348,2.05093 0.74354,1.20308 0.712938,3.22015 -0.0664,4.37655 -1.192754,1.76984 -4.383142,2.70624 -6.8605,2.0136 z m 44.32279,-0.0233 c -2.4035,-0.75169 -3.52948,-2.12932 -3.52948,-4.31831 0,-3.6915 5.17447,-6.0447 9.01426,-4.09944 1.8075,0.91569 2.62776,2.08478 2.62642,3.74329 -0.002,2.19866 -1.90867,4.20972 -4.52335,4.77047 -1.64491,0.35277 -2.2004,0.33791 -3.58785,-0.096 z m -46.479316,36.16454 c -0.08523,-0.5457 -0.237016,-2.39166 -0.337293,-4.10213 l -0.182322,-3.10994 -1.416314,-1.21 -1.416315,-1.20999 0.0043,3.65848 c 0.0039,3.30096 0.0625,3.76113 0.599342,4.70899 0.554152,0.9784 2.052011,2.25678 2.644249,2.25678 0.150765,0 0.194416,-0.41524 0.104301,-0.99219 z m 53.734026,0.46445 c 1.81331,-1.10559 2.25971,-2.6186 2.12906,-7.21614 l -0.081,-2.84908 -1.34804,1.18007 -1.34804,1.18007 -0.17868,3.5211 c -0.0983,1.9366 -0.24969,3.78898 -0.33646,4.1164 -0.19392,0.73165 0.0507,0.74586 1.16312,0.0676 z"
             id="path2579"
             inkscape:connector-curvature="0" />
          <path
             style="fill:#525252;stroke-width:0.26458332"
             d="m 91.942708,216.26479 c -2.613388,-0.97066 -3.854429,-3.16166 -4.046159,-7.14331 l -0.124275,-2.58083 -1.354368,-0.66961 c -0.7449,-0.36828 -1.963623,-1.13472 -2.708275,-1.7032 -1.170339,-0.89345 -1.640691,-1.07218 -3.469044,-1.31824 -4.901964,-0.6597 -8.29243,-3.09666 -9.903489,-7.11832 -0.568769,-1.4198 -0.615571,-1.96275 -0.697627,-8.09312 l -0.08796,-6.57121 -1.984345,-0.9043 -1.984349,-0.9043 0.113289,-28.64011 c 0.121211,-30.64247 0.07708,-29.59267 1.470899,-34.99011 0.30063,-1.16417 0.848693,-2.85844 1.217922,-3.76506 0.369226,-0.90661 0.671321,-1.71128 0.671321,-1.78815 0,-0.0769 -0.982265,-0.59969 -2.182812,-1.16183 -5.261505,-2.46361 -8.966408,-6.24004 -10.502761,-10.705531 -1.33069,-3.867716 -1.301971,-8.450856 0.0782,-12.479676 0.82004,-2.393757 1.789584,-4.363294 2.14792,-4.363294 0.15566,0 5.784594,2.61522 12.508741,5.811599 l 12.225726,5.811599 2.056762,-1.220876 c 3.659672,-2.172347 7.31021,-3.581225 11.97864,-4.623 2.441556,-0.54484 3.467296,-0.619947 8.466666,-0.619947 4.99938,0 6.02511,0.07511 8.46667,0.619947 4.66843,1.041775 8.31897,2.450653 11.97864,4.623 l 2.05676,1.220876 12.22573,-5.811599 c 6.72414,-3.196379 12.35308,-5.811599 12.50874,-5.811599 0.78349,0 2.67025,5.307005 3.08415,8.674966 1.00018,8.138647 -3.14638,15.027275 -11.36079,18.873535 -1.20055,0.56214 -2.18282,1.08496 -2.18282,1.16183 0,0.0769 0.3021,0.88154 0.67133,1.78815 0.36922,0.90662 0.91729,2.60089 1.21792,3.76506 1.39382,5.39744 1.34968,4.34764 1.4709,34.99011 l 0.11328,28.64011 -2.00129,0.91202 -2.0013,0.91202 -0.003,5.90204 c -0.003,6.36328 -0.16162,7.46657 -1.42843,9.96008 -1.58084,3.11158 -5.03085,5.33711 -9.09941,5.86981 -1.93313,0.2531 -2.36157,0.41352 -3.57188,1.33736 -0.75639,0.57736 -1.98473,1.35108 -2.72963,1.71936 l -1.35437,0.66961 -0.12427,2.58083 c -0.20421,4.24072 -1.56987,6.43266 -4.4953,7.21509 -1.35493,0.36239 -2.63141,0.22056 -7.48836,-0.83204 -2.30109,-0.49869 -3.19743,-0.55584 -6.87917,-0.43861 -3.05426,0.0973 -4.82286,0.28692 -6.349999,0.68099 -2.637883,0.6807 -5.560182,0.9095 -6.614583,0.51788 z m 7.143749,-7.45187 c 0.837192,-0.2 3.411533,-0.30503 7.011463,-0.28604 5.10128,0.0269 5.96168,0.0976 8.33437,0.68453 l 2.64583,0.65453 0.0814,-1.32095 c 0.0448,-0.72652 -0.0428,-1.39773 -0.19466,-1.49156 -0.15183,-0.0938 -2.7483,-0.5106 -5.76994,-0.92613 l -5.49388,-0.75552 -5.02708,0.70774 c -6.889236,0.9699 -6.217711,0.71081 -6.217711,2.39893 v 1.4267 l 1.653646,-0.38809 c 0.909505,-0.21344 2.248958,-0.53031 2.976562,-0.70414 z m -1.719791,-9.25444 c 3.458714,-0.7362 4.292364,-0.81635 8.466664,-0.81399 4.06468,0.002 5.03416,0.0914 7.9375,0.7294 6.31887,1.38854 7.31911,1.36128 9.70108,-0.26437 1.17785,-0.80386 1.4059,-1.1041 1.65031,-2.1727 0.42753,-1.86929 0.81944,-6.38403 0.81944,-9.43973 v -2.71975 l 1.71408,-1.60343 c 3.72945,-3.48873 6.83257,-5.75715 10.20293,-7.4585 l 1.57674,-0.79594 -0.006,-24.13942 c -0.003,-13.27668 -0.11758,-25.56817 -0.25395,-27.31442 -0.4197,-5.37412 -1.94136,-10.06684 -4.97341,-15.3377 l -1.36512,-2.37311 3.15912,-0.86271 c 3.76833,-1.02909 5.81455,-1.83282 7.91577,-3.10925 2.17012,-1.31828 4.33739,-3.732047 5.05172,-5.62631 0.64086,-1.699393 1.02731,-5.454034 0.58924,-5.724777 -0.14953,-0.09241 -4.30281,1.749121 -9.22951,4.0923 -4.92671,2.343179 -9.80873,4.651851 -10.84893,5.130381 l -1.89129,0.870056 -2.17671,-1.552863 c -3.90591,-2.786467 -8.85466,-4.848394 -13.5884,-5.661685 -3.03609,-0.521623 -8.93313,-0.521623 -11.969221,0 -4.733737,0.813291 -9.68249,2.875218 -13.588396,5.661685 l -2.176711,1.552863 -1.891284,-0.870056 c -1.040207,-0.47853 -5.930437,-2.7911 -10.867178,-5.139044 -6.803191,-3.235638 -9.032418,-4.187237 -9.209414,-3.931259 -0.384017,0.555382 -0.02679,3.931622 0.589591,5.572399 0.711482,1.893925 2.87655,4.30631 5.049515,5.62631 2.101223,1.27643 4.147439,2.08016 7.915775,3.10925 l 3.159122,0.86271 -1.365128,2.37311 c -3.032049,5.27086 -4.55371,9.96358 -4.973402,15.3377 -0.136374,1.74625 -0.250653,14.03774 -0.253955,27.31442 l -0.006,24.13942 1.653646,0.83179 c 2.576475,1.29599 6.005406,3.75087 8.70866,6.2348 1.358492,1.24828 2.563066,2.42905 2.676831,2.62393 0.113766,0.19488 0.376754,2.65009 0.584423,5.45602 0.207668,2.80594 0.516011,5.77652 0.685207,6.60129 0.272574,1.32871 0.442732,1.59662 1.493229,2.35103 1.492234,1.07164 3.076609,1.56898 4.438628,1.39329 0.582084,-0.0751 2.78474,-0.504 4.894792,-0.95314 z m -4.002826,-4.5576 c -1.101219,-0.59836 -1.629582,-2.2444 -1.297336,-4.04168 0.150193,-0.81247 0.273079,-1.87681 0.273079,-2.36521 0,-0.89907 -0.781654,-2.73101 -1.527043,-3.57888 -0.685964,-0.78028 0.265909,-0.58352 2.703772,0.55891 2.292889,1.07448 4.156313,2.54146 4.793524,3.77369 0.886243,1.7138 0.09823,4.52805 -1.549156,5.53251 -0.992518,0.60517 -2.412338,0.65561 -3.39684,0.12066 z m 21.44928,-0.0357 c -1.69384,-1.05184 -2.44598,-3.34705 -1.71988,-5.24833 0.74472,-1.95002 2.67397,-3.38777 6.45619,-4.81139 l 1.71297,-0.64476 -0.71332,0.93521 c -1.27825,1.67586 -1.5642,2.90867 -1.21051,5.21878 0.36284,2.36995 0.0882,3.602 -0.99237,4.45199 -0.82684,0.6504 -2.56624,0.69889 -3.53308,0.0985 z M 102.5733,180.05523 c -5.469662,-0.68362 -8.930152,-3.00805 -10.525622,-7.07012 -0.521787,-1.32847 -0.599738,-2.00018 -0.592063,-5.10177 0.01281,-5.17323 1.240404,-10.48852 3.84179,-16.63423 l 1.049332,-2.47903 -0.650455,-0.69597 c -1.601575,-1.71367 -2.167503,-4.19139 -1.766292,-7.7331 0.769943,-6.79673 4.375571,-14.05183 11.17574,-22.48738 l 0.7276,-0.90258 0.72761,0.90258 c 6.80016,8.43555 10.40579,15.69065 11.17573,22.48738 0.40122,3.54171 -0.16471,6.01943 -1.76629,7.7331 l -0.65045,0.69597 1.04933,2.47903 c 2.19257,5.17989 3.59191,10.67348 3.90013,15.31131 0.47087,7.0852 -2.32322,11.38919 -8.40319,12.94418 -2.36355,0.6045 -6.77194,0.86571 -9.2929,0.55063 z m 7.9426,-7.01329 c 2.63223,-0.78169 3.43839,-2.36268 3.15009,-6.17785 -0.21981,-2.90885 -0.98649,-6.37797 -2.20138,-9.96096 -1.03904,-3.06434 -5.01586,-11.27178 -5.54324,-11.44023 -0.6536,-0.20877 -4.67474,8.1142 -6.134275,12.69677 -1.719789,5.39967 -2.302515,11.24409 -1.303168,13.07001 0.55985,1.0229 2.226473,1.86877 4.333623,2.19947 2.01272,0.31588 6.00738,0.11495 7.69835,-0.38721 z m -4.68257,-39.55444 c 0.1425,0 1.39142,1.69601 2.77538,3.7689 1.38396,2.07289 2.51629,3.5836 2.51629,3.35712 0,-0.90149 -1.11111,-4.57458 -1.98516,-6.56253 -1.09301,-2.48596 -2.99565,-5.85515 -3.30651,-5.85515 -0.31085,0 -2.2135,3.36919 -3.30651,5.85515 -0.87405,1.98795 -1.98515,5.66104 -1.98515,6.56253 0,0.22648 1.13232,-1.28423 2.51628,-3.35712 1.38396,-2.07289 2.63288,-3.7689 2.77538,-3.7689 z m -23.304378,25.38321 c -2.862471,-0.45128 -4.753276,-2.19791 -4.943271,-4.56636 -0.13675,-1.7047 0.583229,-2.90538 2.328725,-3.88351 0.977773,-0.54792 1.521005,-0.65878 3.16476,-0.64584 1.94609,0.0153 3.166983,0.42074 4.530572,1.50445 0.872588,0.69349 1.552858,2.17299 1.553855,3.37945 0.0024,2.85722 -3.027312,4.78052 -6.634641,4.21181 z m 43.990628,-0.005 c -3.33627,-0.64472 -5.02771,-3.74129 -3.45385,-6.32305 1.14277,-1.8746 2.88239,-2.7464 5.52177,-2.76718 1.64375,-0.0129 2.18699,0.0979 3.16476,0.64583 2.15112,1.20544 2.92707,3.25796 2.02871,5.36631 -0.93956,2.20506 -4.33375,3.64385 -7.26139,3.07809 z m -47.022586,35.14571 c -0.09056,-1.05503 -0.244351,-2.91537 -0.341762,-4.13411 L 78.978125,187.66096 77.589063,186.46909 76.2,185.27723 v 3.61467 c 0,4.11213 0.210712,4.88303 1.689587,6.1815 1.553294,1.36381 1.801585,1.1997 1.607407,-1.06246 z m 53.880026,1.32253 c 0.49446,-0.32763 1.1705,-1.1423 1.5023,-1.81038 0.55124,-1.10989 0.59689,-1.51796 0.52917,-4.73033 l -0.0741,-3.51566 -1.35101,1.2153 -1.35102,1.2153 -0.1806,3.25084 c -0.0993,1.78796 -0.24877,3.63779 -0.33208,4.11073 -0.17934,1.0181 0.0476,1.06578 1.25736,0.2642 z"
             id="path2577"
             inkscape:connector-curvature="0" />
          <path
             style="fill:#2e2e2e;stroke-width:0.26458332"
             d="m 92.084667,216.27118 c -2.766896,-0.83963 -4.243001,-3.63598 -4.243001,-8.03799 v -1.69284 l -1.389062,-0.69585 c -0.763985,-0.38271 -2.012654,-1.16562 -2.77482,-1.73979 -1.169543,-0.88106 -1.685566,-1.08304 -3.307292,-1.29454 -1.056844,-0.13782 -2.278721,-0.35912 -2.715284,-0.49178 -3.619518,-1.09985 -6.461762,-3.91559 -7.580378,-7.50971 -0.416375,-1.33781 -0.489413,-2.48032 -0.489413,-7.65555 v -6.08306 l -1.850697,-0.83868 -1.850697,-0.83868 -0.0013,-28.59487 c -0.0016,-32.35097 -0.06744,-31.19188 2.144924,-37.73923 0.588404,-1.74135 1.030803,-3.18754 0.983112,-3.21377 -0.04769,-0.0262 -1.094216,-0.52165 -2.325611,-1.10095 -3.959423,-1.86263 -7.101258,-4.56976 -8.957633,-7.71818 -2.422498,-4.108562 -2.970928,-9.610248 -1.463867,-14.685073 0.571747,-1.925279 1.962023,-4.976048 2.267653,-4.976048 0.138652,0 5.788911,2.628096 12.55613,5.840212 l 12.304035,5.840212 0.994312,-0.658005 c 3.193314,-2.113236 8.573899,-4.278238 13.063351,-5.256341 2.317377,-0.50488 3.494001,-0.5873 8.384221,-0.5873 4.89023,0 6.06685,0.08242 8.38423,0.5873 4.48945,0.978103 9.87003,3.143105 13.06335,5.256341 l 0.99431,0.658005 12.30403,-5.840212 c 6.76722,-3.212116 12.41748,-5.840212 12.55613,-5.840212 0.30564,0 1.69591,3.050769 2.26766,4.976048 1.50706,5.074825 0.95863,10.576511 -1.46387,14.685073 -1.85637,3.14842 -4.99821,5.85555 -8.95757,7.71818 -1.23139,0.5793 -2.27414,1.07095 -2.31722,1.09257 -0.0431,0.0216 0.39945,1.46856 0.98341,3.21543 2.20464,6.59503 2.13762,5.41122 2.13762,37.76154 v 28.61046 l -1.85108,0.77816 -1.85108,0.77816 -0.001,5.83139 c -0.001,7.69287 -0.45905,9.50198 -3.1253,12.35242 -2.01658,2.15588 -4.23824,3.21485 -7.66078,3.65156 -1.62705,0.20761 -2.1339,0.40518 -3.30729,1.28913 -0.76216,0.57417 -1.99338,1.34831 -2.73604,1.72032 l -1.35028,0.67636 -0.14687,2.66539 c -0.24085,4.37082 -1.67614,6.54986 -4.72781,7.17769 -1.46745,0.30191 -2.21318,0.20641 -7.6383,-0.97815 -2.80087,-0.61156 -10.08535,-0.39909 -13.096869,0.38201 -2.642042,0.68526 -5.014394,0.88507 -6.20804,0.52285 z m 5.811165,-7.1576 c 2.175028,-0.51291 3.244018,-0.59274 7.937498,-0.59274 5.29481,0 7.3961,0.25586 10.92793,1.33059 0.4274,0.13005 0.46859,-0.015 0.39688,-1.39794 l -0.08,-1.54305 -5.62239,-0.78354 -5.6224,-0.78355 -5.62239,0.78355 -5.622399,0.78354 -0.08001,1.54305 c -0.07171,1.38291 -0.03052,1.52799 0.396875,1.39794 0.26229,-0.0798 1.607982,-0.41185 2.990429,-0.73785 z m -0.264583,-9.55348 c 3.395561,-0.71916 4.338161,-0.81254 8.202081,-0.81254 3.93368,0 4.75831,0.085 8.33438,0.85931 6.19457,1.34126 7.76375,1.19137 10.08266,-0.96308 0.71501,-0.6643 0.86415,-1.05051 1.1435,-2.96099 0.17669,-1.20837 0.42686,-4.17735 0.55593,-6.59773 0.12907,-2.42038 0.23958,-4.42225 0.24556,-4.44861 0.006,-0.0264 1.23128,-1.13709 2.72287,-2.46832 2.86723,-2.55897 6.41987,-5.08035 8.97715,-6.37127 l 1.54003,-0.7774 v -24.7067 c 0,-15.38734 -0.10508,-25.74023 -0.27858,-27.44671 -0.50985,-5.01476 -1.7996,-8.98937 -4.47899,-13.80288 -0.87583,-1.57342 -1.59243,-2.96053 -1.59243,-3.08246 0,-0.12193 0.62508,-0.36722 1.38907,-0.5451 3.95049,-0.91978 7.96764,-2.48254 10.09159,-3.92584 1.64349,-1.11682 3.37181,-3.078919 4.15196,-4.713587 0.64385,-1.349072 0.83815,-2.1708 0.96076,-4.063408 0.1252,-1.932459 0.0851,-2.369738 -0.21619,-2.358205 -0.20344,0.0078 -5.1887,2.306488 -11.07834,5.108224 l -10.70845,5.094066 -2.46097,-1.668535 c -6.22354,-4.219557 -11.80888,-5.927833 -19.38151,-5.927833 -7.572629,0 -13.15797,1.708276 -19.381504,5.927833 L 83.990857,100.57687 73.282408,95.482804 C 67.392762,92.681068 62.407507,90.382367 62.204066,90.37458 c -0.300786,-0.01151 -0.341728,0.420574 -0.21914,2.312735 0.291971,4.506615 2.445672,7.539105 7.064601,9.947225 1.701634,0.88716 5.427978,2.16903 8.142661,2.80108 0.763984,0.17788 1.389062,0.42317 1.389062,0.5451 0,0.12193 -0.716592,1.50904 -1.592426,3.08246 -2.679391,4.81351 -3.969142,8.78812 -4.478994,13.80288 -0.173479,1.70627 -0.27858,12.05215 -0.27858,27.4226 v 24.68259 l 2.447396,1.35651 c 3.19564,1.77124 5.620541,3.5962 8.461105,6.36776 l 2.30954,2.25344 0.400428,5.42396 c 0.525259,7.11484 0.698214,7.76991 2.351384,8.90596 2.360694,1.62225 3.007381,1.64153 9.430146,0.28122 z m -4.518546,-4.89521 c -0.903563,-0.80733 -1.315241,-2.28216 -1.01341,-3.63051 0.511088,-2.28317 0.06121,-4.55311 -1.174133,-5.92429 l -0.569952,-0.63263 0.789453,0.19017 c 1.542592,0.37159 4.57029,1.94447 5.692724,2.95735 1.925542,1.73762 2.330112,3.55588 1.256885,5.64886 -1.076666,2.09969 -3.447518,2.76173 -4.981567,1.39105 z m 21.780187,0.20737 c -0.47427,-0.28917 -1.09223,-0.90382 -1.37323,-1.3659 -1.86339,-3.0641 0.0368,-6.15633 5.01367,-8.15872 1.09141,-0.43912 2.07105,-0.79776 2.17699,-0.79698 0.10593,7.9e-4 -0.16051,0.55823 -0.59209,1.23876 -1.02253,1.61237 -1.17948,2.57244 -0.78312,4.79033 0.25838,1.44585 0.25826,2.02902 -5.3e-4,2.81339 -0.60115,1.82151 -2.72179,2.52771 -4.44161,1.47912 z m -11.94141,-14.83015 c -6.860056,-0.71832 -10.641454,-3.90635 -11.425248,-9.63241 -0.68422,-4.99862 1.200904,-13.69334 4.512408,-20.81249 0.29097,-0.62553 0.231995,-0.80868 -0.619691,-1.92445 -1.196372,-1.56733 -1.488556,-2.64615 -1.49039,-5.50285 -0.004,-6.29188 3.008831,-13.46814 8.956331,-21.3328 3.26584,-4.31856 2.89172,-3.92615 3.27917,-3.43955 1.8805,2.36174 5.12228,6.81922 5.98774,8.23321 3.63763,5.9432 5.5894,11.7217 5.58631,16.53914 -0.002,2.8567 -0.29402,3.93552 -1.49039,5.50285 -0.85169,1.11577 -0.91067,1.29892 -0.6197,1.92445 3.31151,7.11915 5.19663,15.81387 4.51241,20.81249 -0.7992,5.83862 -4.48618,8.87947 -11.6856,9.63772 -2.73399,0.28794 -2.70243,0.28797 -5.50335,-0.005 z m 8.04123,-7.16218 c 1.36508,-0.54257 1.67406,-0.79778 2.2053,-1.8216 0.56978,-1.09807 0.60573,-1.40658 0.46239,-3.96874 -0.17647,-3.15434 -0.81836,-6.30309 -2.00979,-9.85896 -0.83366,-2.48813 -5.43196,-12.10146 -5.78843,-12.10146 -0.31191,0 -3.58099,6.46745 -4.89573,9.68559 -2.661651,6.51502 -3.760294,13.50774 -2.543464,16.18885 0.876265,1.93072 3.363264,2.72938 8.071804,2.59213 2.30769,-0.0673 3.23917,-0.21551 4.49792,-0.71581 z m -5.15938,-39.39243 c 0.11113,0 1.36106,1.69664 2.77763,3.77032 2.48057,3.63125 2.56911,3.72681 2.40059,2.59081 -0.38638,-2.60448 -3.17914,-9.28679 -4.64893,-11.12363 l -0.52929,-0.66145 -0.52928,0.66145 c -1.4698,1.83684 -4.26255,8.51915 -4.64893,11.12363 -0.16853,1.136 -0.08,1.04044 2.40059,-2.59081 1.41656,-2.07368 2.66649,-3.77032 2.77762,-3.77032 z m -24.822668,24.99798 c -3.173923,-1.37859 -4.389019,-4.36128 -2.727372,-6.69485 1.220149,-1.71355 4.241447,-2.5161 6.738892,-1.79008 2.688243,0.7815 4.294065,2.71755 4.082266,4.92178 -0.152498,1.58707 -0.805352,2.47042 -2.439209,3.30038 -1.525654,0.77499 -4.190227,0.89881 -5.654577,0.26277 z m 44.004958,-0.24575 c -1.65059,-0.8507 -2.30087,-1.72999 -2.4534,-3.3174 -0.37628,-3.91598 4.91357,-6.51261 9.11957,-4.47652 3.24445,1.57061 3.2267,5.49033 -0.034,7.50629 -1.09287,0.67568 -1.61714,0.81631 -3.30412,0.88628 -1.73333,0.0719 -2.18447,-0.009 -3.32806,-0.59865 z m -45.469286,35.9035 c -0.08889,-0.98227 -0.240036,-2.83171 -0.335873,-4.10988 l -0.174249,-2.32395 -1.314429,-1.18178 c -0.722937,-0.64998 -1.420617,-1.18179 -1.550398,-1.18179 -0.304223,0 -0.296015,5.64007 0.01013,6.95889 0.286094,1.23247 1.212257,2.62651 2.119111,3.18965 1.266492,0.78647 1.423726,0.61592 1.245711,-1.35114 z m 54.230746,0.93017 c 1.47797,-1.29767 1.68958,-2.07035 1.68958,-6.16924 0,-1.99664 -0.10505,-3.56311 -0.23567,-3.51423 -0.12962,0.0485 -0.76732,0.58086 -1.41711,1.18301 l -1.18144,1.09481 -0.18136,2.87394 c -0.0997,1.58067 -0.25128,3.43948 -0.33676,4.13071 -0.19279,1.55903 0.2282,1.66056 1.66276,0.401 z"
             id="path2575"
             inkscape:connector-curvature="0" />
          <path
             style="fill:#000000;stroke-width:0.26458332"
             d="m 92.604166,216.31022 c -1.303676,-0.246 -1.93707,-0.64024 -2.972946,-1.85043 -1.160988,-1.35635 -1.50963,-2.48218 -1.708057,-5.51561 l -0.16112,-2.46311 -1.349251,-0.67701 c -0.742087,-0.37235 -1.825501,-1.06114 -2.407584,-1.53064 -1.49139,-1.20295 -2.070071,-1.46509 -3.234309,-1.46509 -2.747856,0 -5.971846,-1.44106 -7.984127,-3.56875 -2.771508,-2.93046 -3.194129,-4.55865 -3.198214,-12.32141 l -0.0031,-5.9683 -1.859835,-0.82636 -1.859833,-0.82635 0.08436,-29.32098 0.08436,-29.32097 0.600892,-2.64583 c 0.330491,-1.45521 0.963155,-3.65787 1.405917,-4.89479 1.24851,-3.48791 1.29795,-3.19977 -0.698103,-4.0687 -6.175731,-2.68844 -10.471599,-7.62167 -11.539226,-13.251243 -0.389654,-2.054639 -0.3227,-5.922475 0.137783,-7.959439 0.430458,-1.904147 2.235609,-6.470619 2.557871,-6.470619 0.100576,0 5.70189,2.629752 12.447363,5.843893 l 12.264498,5.843893 1.190625,-0.69132 c 2.218253,-1.287997 6.472809,-3.269081 8.466666,-3.942404 4.367006,-1.47473 7.093685,-1.867498 12.964584,-1.867498 5.8709,0 8.59758,0.392768 12.96458,1.867498 1.99386,0.673323 6.24842,2.654407 8.46667,3.942404 l 1.19063,0.69132 12.26449,-5.843893 c 6.74548,-3.214141 12.34679,-5.843893 12.44737,-5.843893 0.32226,0 2.12741,4.566472 2.55787,6.470619 0.46048,2.036964 0.52743,5.9048 0.13778,7.959439 -1.06763,5.629573 -5.36349,10.562803 -11.53922,13.251243 -1.99606,0.86893 -1.94662,0.58079 -0.69811,4.0687 0.44276,1.23692 1.07543,3.43958 1.40592,4.89479 l 0.60089,2.64583 0.0844,29.32097 0.0844,29.32098 -1.85984,0.82635 -1.85983,0.82636 v 5.62454 c 0,3.12017 -0.13131,6.24883 -0.29491,7.02663 -1.09888,5.22456 -5.86664,9.19025 -11.06571,9.20415 -0.98234,0.003 -1.41457,0.1917 -2.64583,1.15735 -0.80942,0.63482 -2.07884,1.46118 -2.82093,1.83637 l -1.34925,0.68216 -0.16112,2.46311 c -0.0886,1.35471 -0.30601,2.91257 -0.4831,3.46191 -0.39615,1.22884 -1.85176,2.96999 -2.96359,3.54494 -1.20688,0.6241 -4.01732,0.50607 -7.45202,-0.31296 -2.49072,-0.59394 -3.5018,-0.69402 -7.01146,-0.69402 -3.41288,0 -4.56721,0.10837 -6.879167,0.64585 -3.254653,0.75663 -5.06767,0.96229 -6.35,0.72032 z m 5.688541,-7.22647 c 1.989303,-0.46441 3.230473,-0.55591 7.540623,-0.55591 5.1494,0 5.91215,0.0929 10.64948,1.29671 l 0.7276,0.1849 v -1.55868 -1.55868 l -5.68854,-0.80011 -5.68854,-0.80011 -5.68854,0.80011 -5.688541,0.80011 v 1.55868 1.55868 l 0.727604,-0.1849 c 0.400183,-0.10169 1.799167,-0.43505 3.108854,-0.7408 z m -2.035672,-9.1821 c 7.773685,-1.61365 11.261065,-1.60439 19.437655,0.0516 3.73602,0.75667 4.29976,0.81118 5.38562,0.52075 1.34278,-0.35914 3.3892,-1.65496 3.78678,-2.39785 0.43413,-0.81118 0.79943,-3.66126 1.08907,-8.49701 l 0.27733,-4.63021 1.64003,-1.6736 c 2.80077,-2.8581 6.09435,-5.28151 10.22105,-7.52059 l 1.34084,-0.72753 -0.005,-25.33393 c -0.004,-20.5433 -0.0771,-25.85927 -0.38553,-28.11206 -0.63221,-4.61767 -1.92329,-8.31135 -4.47408,-12.80006 -0.81687,-1.43748 -1.48523,-2.69016 -1.48523,-2.78372 0,-0.0936 1.10133,-0.44974 2.4474,-0.79153 9.77041,-2.48082 14.22135,-6.606254 14.22135,-13.181315 0,-1.158271 -0.10092,-1.664203 -0.33196,-1.664203 -0.18258,0 -5.08709,2.262188 -10.89892,5.027083 -5.81182,2.764896 -10.66646,5.027085 -10.78807,5.027085 -0.12161,0 -1.18952,-0.663218 -2.37313,-1.473816 -5.23781,-3.587142 -10.14011,-5.355094 -16.48665,-5.945699 -8.07231,-0.751203 -15.742592,1.269332 -22.57085,5.945699 -1.183603,0.810598 -2.254514,1.473816 -2.379797,1.473816 -0.125286,0 -4.973783,-2.262189 -10.774436,-5.027085 -5.800656,-2.764895 -10.718681,-5.027083 -10.928945,-5.027083 -0.314666,0 -0.358628,0.41517 -0.248493,2.346763 0.35527,6.230903 4.401348,9.867735 13.763144,12.371055 1.563839,0.41817 2.84376,0.83434 2.844271,0.92483 5.29e-4,0.0905 -0.659784,1.33118 -1.467316,2.7571 -2.662906,4.70211 -4.044566,8.75132 -4.600474,13.48254 -0.177988,1.51482 -0.280064,11.55103 -0.280538,27.58289 l -7.93e-4,25.20164 1.351653,0.72753 c 3.781623,2.03546 7.786695,5.01214 10.468752,7.78067 l 1.369367,1.41352 0.297101,4.49792 c 0.318799,4.82639 0.712036,7.9267 1.097801,8.65512 0.29791,0.56252 2.211226,1.88588 3.2747,2.26495 1.240642,0.44224 2.110663,0.37659 6.16641,-0.4653 z m -3.313866,-5.43265 -0.930998,-0.93099 0.187725,-3.00445 c 0.195755,-3.13295 0.02125,-3.94798 -1.125318,-5.25549 -0.684138,-0.78018 -0.233923,-0.76136 1.822532,0.0762 3.998857,1.62868 6.049592,3.96928 5.673733,6.47571 -0.293196,1.95515 -2.040732,3.57001 -3.86333,3.57001 -0.600463,0 -1.09352,-0.26017 -1.764344,-0.931 z m 22.155851,0.46757 c -1.41241,-0.70962 -2.12194,-1.97 -2.12194,-3.76933 0,-1.934 0.92428,-3.29404 3.09579,-4.5553 1.24936,-0.72566 4.3098,-2.05986 4.72499,-2.05986 0.0554,0 -0.19365,0.43386 -0.5535,0.96413 -1.1035,1.62609 -1.32327,2.77716 -0.95206,4.98638 0.37816,2.25055 0.0846,3.34523 -1.15946,4.32382 -0.88215,0.69389 -1.80525,0.72741 -3.03382,0.11016 z m -14.55735,-15.2969 c -3.748597,-0.81177 -6.688943,-2.92936 -8.076429,-5.81652 -0.688155,-1.43195 -0.766646,-1.89121 -0.86869,-5.08277 -0.168704,-5.27652 1.027049,-10.86851 3.703256,-17.31845 l 1.066668,-2.57078 -0.919602,-1.26568 c -1.383215,-1.90376 -1.611376,-2.89231 -1.447223,-6.27041 0.306488,-6.30728 3.315303,-13.11613 9.24645,-20.92443 1.2159,-1.60073 2.38016,-2.91042 2.58723,-2.91042 0.20707,0 1.37133,1.30969 2.58724,2.91042 5.93114,7.8083 8.93996,14.61715 9.24644,20.92443 0.16416,3.3781 -0.064,4.36665 -1.44722,6.27041 l -0.9196,1.26568 1.06667,2.57078 c 2.6762,6.44994 3.87196,12.04193 3.70325,17.31845 -0.10204,3.19156 -0.18053,3.65082 -0.86869,5.08277 -1.40889,2.9317 -4.34303,5.01604 -8.20871,5.83125 -2.34669,0.49488 -8.13544,0.48672 -10.45104,-0.0147 z m 10.76477,-6.88643 c 1.9918,-0.99549 2.46342,-1.88072 2.46398,-4.62484 0.001,-5.49468 -2.41028,-13.26753 -6.29381,-20.28725 -0.8252,-1.49159 -1.56467,-2.71198 -1.64328,-2.71198 -0.30906,0 -3.20943,5.59605 -4.45673,8.59896 -2.329917,5.60931 -3.481175,10.36878 -3.480358,14.3883 5.3e-4,2.52476 0.505296,3.63466 2.034289,4.47293 1.619699,0.88801 3.004439,1.09982 6.613409,1.01158 2.9456,-0.072 3.35706,-0.14526 4.7625,-0.8477 z m -8.12388,-35.54017 c 1.37286,-2.04906 2.56571,-3.72557 2.65077,-3.72557 0.0851,0 1.27792,1.67651 2.65077,3.72557 1.37287,2.04907 2.57233,3.77268 2.66548,3.83025 0.21428,0.13243 -0.14124,-1.78964 -0.69913,-3.77973 -0.42686,-1.52268 -3.46489,-7.94482 -4.21959,-8.91989 -0.39351,-0.50839 -0.40155,-0.50839 -0.79505,0 -0.75471,0.97507 -3.79273,7.39721 -4.21959,8.91989 -0.55789,1.99009 -0.91342,3.91216 -0.69913,3.77973 0.0932,-0.0576 1.29261,-1.78118 2.66547,-3.83025 z m -21.823185,21.35124 c -1.791441,-0.63515 -3.130703,-1.91398 -3.610023,-3.44712 -0.930166,-2.97522 2.489724,-5.90463 6.205522,-5.31553 5.667687,0.89854 7.145078,6.62605 2.238033,8.67634 -1.108408,0.46312 -3.643066,0.50838 -4.833532,0.0863 z m 44.055015,-0.0983 c -4.06542,-1.763 -3.78915,-6.3659 0.49307,-8.2148 1.43567,-0.61987 4.15872,-0.56081 5.49144,0.11909 4.99772,2.54965 2.46848,8.54936 -3.58614,8.50683 -0.81082,-0.006 -1.89009,-0.1907 -2.39837,-0.41112 z m -46.030765,33.36547 -0.312282,-4.12954 -1.200684,-1.11191 c -2.019017,-1.86976 -1.935427,-1.94408 -1.933766,1.7192 0.0016,3.5418 0.219202,4.7086 1.12577,6.03666 0.547365,0.80184 2.269202,1.97917 2.523144,1.72523 0.06055,-0.0606 -0.03043,-1.96839 -0.202182,-4.23964 z m 55.289285,2.35037 c 0.62256,-0.9315 0.66648,-1.23019 0.74672,-5.07857 l 0.0853,-4.08885 -1.44404,1.27314 -1.44403,1.27315 -0.16694,2.39828 c -0.0918,1.31905 -0.23943,3.27151 -0.32804,4.3388 l -0.16111,1.94053 1.02536,-0.53338 c 0.56395,-0.29337 1.32302,-0.97876 1.68682,-1.5231 z"
             id="path2573"
             inkscape:connector-curvature="0" />
        </g>
      </g>
    </g>
  </g>
</svg>
